<?xml version="1.0" encoding="UTF-8"?>
<svg width="630px" height="1396px" viewBox="0 0 630 1396" version="1.1" xmlns="http://www.w3.org/2000/svg" xmlns:xlink="http://www.w3.org/1999/xlink">
    <!-- Generator: Sketch 56.2 (81672) - https://sketch.com -->
    <title>Stroke 19</title>
    <desc>Created with Sketch.</desc>
    <defs>
        <radialGradient cx="50%" cy="0%" fx="50%" fy="0%" r="225.57377%" gradientTransform="translate(0.500000,0.000000),scale(1.000000,0.443314),rotate(90.000000),translate(-0.500000,-0.000000)" id="radialGradient-1">
            <stop stop-color="#FF3EE0" offset="0%"></stop>
            <stop stop-color="#00B205" offset="100%"></stop>
        </radialGradient>
    </defs>
    <g id="Page-1" stroke="none" stroke-width="1" fill="none" fill-rule="evenodd">
        <g id="black-copy-15" transform="translate(-948.000000, -1344.000000)" stroke="url(#radialGradient-1)" stroke-width="20">
            <path d="M1479.87307,2336.48554 C1571.42814,2176.80019 1591.7645,1989.60261 1540.32693,1780.09849 C1488.91007,1570.70627 1351.96695,1413.8683 1301.58597,1361.64563 C1291.64154,1351.34201 1275.11306,1351.4622 1265.35923,1361.94819 C1256.3761,1371.61353 1256.44654,1386.58817 1265.56641,1396.12917 C1312.1105,1444.82889 1443.94052,1596.08401 1492.03842,1791.95635 C1540.32693,1988.63276 1521.72255,2163.51657 1436.73909,2311.73779 C1383.3665,2404.83508 1320.6337,2467.14585 1293.11249,2492.0884 C1286.31298,2490.46784 1279.22343,2489.58502 1271.9267,2489.58502 C1267.37713,2489.58502 1262.90627,2489.92489 1258.53901,2490.56731 C1241.6169,2493.06239 1224.33016,2487.38836 1212.21453,2475.31083 C1182.34809,2445.53561 1139.93094,2428.34772 1093.57746,2432.41777 C1021.27315,2438.77153 963.363404,2497.89506 958.366327,2570.32709 C952.349945,2657.45192 1021.22757,2730 1107.04387,2730 C1145.13934,2730 1179.8827,2715.69679 1206.22715,2692.17172 C1222.14653,2677.95554 1243.121,2670.18845 1264.3938,2671.93335 C1270.24858,2672.41414 1276.26082,2672.33953 1282.38079,2671.65566 C1324.26342,2666.98049 1357.99991,2633.23884 1362.64479,2591.3405 C1363.76353,2581.28142 1363.24145,2571.51246 1361.31472,2562.25744 C1354.24174,2528.22981 1364.59224,2492.80542 1387.38156,2466.5656 C1416.20384,2433.37519 1449.31465,2389.78997 1479.87307,2336.48554 Z" id="Stroke-19"></path>
        </g>
    </g>
</svg>