<?xml version="1.0" encoding="UTF-8"?>
<svg width="616px" height="840px" viewBox="0 0 616 840" version="1.1" xmlns="http://www.w3.org/2000/svg" xmlns:xlink="http://www.w3.org/1999/xlink">
    <!-- Generator: Sketch 56.2 (81672) - https://sketch.com -->
    <title>Stroke 5</title>
    <desc>Created with Sketch.</desc>
    <defs>
        <radialGradient cx="50%" cy="0%" fx="50%" fy="0%" r="136.557377%" gradientTransform="translate(0.500000,0.000000),scale(1.000000,0.732293),rotate(90.000000),translate(-0.500000,-0.000000)" id="radialGradient-1">
            <stop stop-color="#1400E7" offset="0%"></stop>
            <stop stop-color="#9F1C1C" offset="100%"></stop>
        </radialGradient>
    </defs>
    <g id="Page-1" stroke="none" stroke-width="1" fill="none" fill-rule="evenodd">
        <g id="black-copy-6" transform="translate(-177.000000, -148.000000)" fill="url(#radialGradient-1)" stroke="#1700FF" stroke-width="6">
            <path d="M497.915035,852.10481 C488.276914,852.639417 478.493572,852.620324 468.59176,852.020801 C340.682207,844.26518 238.094695,739.379101 233.31003,611.428547 C227.971229,468.6121 342.256714,351.158937 483.99288,351.158937 C525.881635,351.158937 565.351305,361.438666 600.051596,379.596212 C617.619574,388.787634 638.542932,376.060168 639.234645,356.256797 C639.253753,355.733645 639.276683,355.210494 639.299612,354.687343 C642.651171,281.377446 702.222552,221.593106 775.578508,218.011239 C776.163216,217.98069 776.747923,217.957778 777.328809,217.934867 C790.956699,217.430809 794.900609,199.227439 782.648501,193.247478 C725.549708,165.386815 661.178375,150.10851 593.138289,151.040254 C366.852647,154.144793 182.478689,338.935529 180.02521,565.051388 C177.716953,777.763885 334.185457,954.394227 538.31718,984 C531.403873,967.679211 527.574612,949.73169 527.574612,930.890611 C527.574612,918.464816 529.240837,906.428521 532.359277,894.991749 C538.454758,872.648994 521.058753,850.825572 497.915035,852.10481 Z" id="Stroke-5"></path>
        </g>
    </g>
</svg>