<?xml version="1.0" encoding="UTF-8"?>
<svg width="197px" height="428px" viewBox="0 0 197 428" version="1.1" xmlns="http://www.w3.org/2000/svg" xmlns:xlink="http://www.w3.org/1999/xlink">
    <!-- Generator: Sketch 56.2 (81672) - https://sketch.com -->
    <title>Stroke 29</title>
    <desc>Created with Sketch.</desc>
    <defs>
        <radialGradient cx="50%" cy="0%" fx="50%" fy="0%" r="219.916275%" gradientTransform="translate(0.500000,0.000000),scale(1.000000,0.439320),rotate(90.000000),translate(-0.500000,-0.000000)" id="radialGradient-1">
            <stop stop-color="#5533DC" offset="0%"></stop>
            <stop stop-color="#00C05F" offset="100%"></stop>
        </radialGradient>
    </defs>
    <g id="Page-1" stroke="none" stroke-width="1" fill="none" fill-rule="evenodd">
        <g id="black-copy-6" transform="translate(-826.000000, -120.000000)" stroke="url(#radialGradient-1)" stroke-width="16">
            <path d="M935.920705,290.371403 L935.920705,287.858469 C935.920705,268.452336 944.469478,249.580201 960.226163,238.209175 C975.624026,227.102006 985.614381,209.008881 985.507364,188.572445 C985.343691,156.30009 958.746809,129.022191 926.421369,128.029582 C891.848571,126.967867 863.489057,154.622706 863.489057,188.886562 C863.489057,208.701047 872.982097,226.291585 887.674907,237.398753 C903.160902,249.115308 913.075715,266.693282 913.075715,286.08685 L913.075715,293.474876 C913.075715,327.016263 896.211089,357.636365 869.513486,378.01626 C847.751257,394.633036 833.776091,420.868068 834.002716,450.38876 C834.361537,497.745002 872.774358,537.700653 920.17661,539.899471 C972.123939,542.311887 1015,500.992969 1015,449.685139 C1015,420.930891 1001.52215,395.34294 980.527924,378.826681 C953.093792,357.240578 935.920705,325.244645 935.920705,290.371403 Z" id="Stroke-29"></path>
        </g>
    </g>
</svg>