<?xml version="1.0" standalone="no"?>
<!DOCTYPE svg PUBLIC "-//W3C//DTD SVG 1.1//EN" "http://www.w3.org/Graphics/SVG/1.1/DTD/svg11.dtd" >
<svg xmlns="http://www.w3.org/2000/svg" xmlns:xlink="http://www.w3.org/1999/xlink" version="1.1">
<metadata>
Created by FontForge 20170731 at Thu Dec 19 16:47:48 2019
 By Aleksey,,,
copyright missing
</metadata>
<defs>
<font id="Werkschauzeiten-Lang" horiz-adv-x="1024" >
  <font-face 
    font-family="Werkschauzeiten Lang"
    font-weight="400"
    font-stretch="normal"
    units-per-em="2048"
    panose-1="0 0 5 0 0 0 0 0 0 0"
    ascent="1536"
    descent="-512"
    x-height="1011"
    cap-height="1490"
    bbox="-735 -460 1979 1887"
    underline-thickness="50"
    underline-position="-200"
    unicode-range="U+0020-FB02"
  />
<missing-glyph horiz-adv-x="1479" 
d="M33 0v1490h1398v-1490h-1398zM1247 202v1086h-1030v-1086h1030z" />
    <glyph glyph-name=".notdef" horiz-adv-x="1479" 
d="M33 0v1490h1398v-1490h-1398zM1247 202v1086h-1030v-1086h1030z" />
    <glyph glyph-name=".null" horiz-adv-x="0" 
 />
    <glyph glyph-name="nonmarkingreturn" horiz-adv-x="682" 
 />
    <glyph glyph-name="space" unicode=" " horiz-adv-x="512" 
 />
    <glyph glyph-name="exclam" unicode="!" horiz-adv-x="682" 
d="M374 -22q-44 0 -76.5 33.5t-32.5 84.5q0 49 32 85.5t79 36.5t79.5 -36.5t32.5 -85.5t-33 -83.5t-81 -34.5zM483 1345q0 -40 -5 -84l-45 -417l-47 -446h-26l-19 242q-7 95 -44 395q-32 258 -32 307q0 78 26.5 130.5t86.5 52.5q67 0 92 -79q13 -39 13 -101z" />
    <glyph glyph-name="quotedbl" unicode="&#x22;" horiz-adv-x="836" 
d="M348 1333q0 -32 -7 -88l-48 -451h-45l-52 448q-8 64 -8 107q0 42 22.5 68t56.5 26q44 0 62.5 -27.5t18.5 -82.5zM545 794l-50 438q-2 20 -4 37.5t-3 28.5t-1 14q-2 16 -2 21q0 110 81 110q45 0 63 -28t18 -83q0 -14 -1 -21q0 -3 -1 -11t-2.5 -25.5t-3.5 -32.5l-47 -448
h-47z" />
    <glyph glyph-name="numbersign" unicode="#" 
d="M16 554h218l95 381h-218l16 81h219l118 472h123l-118 -472h216l116 472h121l-119 -472h218l-19 -81h-218l-92 -381h218l-22 -82h-215l-116 -472h-124l119 472h-216l-116 -472h-121l116 472h-215zM571 554l92 379h-216l-92 -379h216z" />
    <glyph glyph-name="dollar" unicode="$" 
d="M120 424q28 -133 79 -209q92 -132 272 -135v637q-197 126 -263 198q-103 109 -103 258q0 130 102 231t264 110v141h69v-141q80 -4 183 -35q92 -31 146 -85v-251h-30q-23 142 -105 223t-194 85v-552q155 -86 236.5 -153t120 -145.5t38.5 -189.5q0 -63 -20 -126
q-30 -96 -102 -160q-55 -50 -132 -76q-74 -25 -141 -31v-199h-69v199q-132 3 -217 33q-58 20 -164 81v292h30zM540 80q86 16 138 57q97 73 97 225q0 106 -71 186q-45 50 -164 129v-597zM469 1451q-95 -13 -152.5 -75.5t-57.5 -157.5q0 -89 83 -180q52 -55 127 -103v516z" />
    <glyph glyph-name="percent" unicode="%" horiz-adv-x="1706" 
d="M566 1493q61 0 101 -17q21 -9 41 -29l38 -37q43 -40 151 -40q114 0 212 62q51 31 109 93h80l-789 -1554h-97l713 1408q-77 -40 -114 -51.5t-96 -11.5q-51 0 -93 8q-26 5 -50 13q14 -51 14 -109q0 -98 -33 -201t-87.5 -185.5t-133 -135.5t-162.5 -53q-100 0 -172.5 82
t-72.5 225q0 120 61 243.5t165 206.5t215 83zM1210 70q77 0 152.5 83.5t120 200t44.5 216.5q0 92 -40.5 144t-107.5 52q-75 0 -148 -96.5t-115 -223t-42 -226.5q0 -71 37.5 -110.5t98.5 -39.5zM919 310q0 124 63 247t167 202t212 79q98 0 159.5 -63t61.5 -207
q0 -84 -30.5 -182t-83 -184.5t-132.5 -144t-169 -57.5q-108 0 -178 79t-70 231zM407 730q80 0 156.5 76t123.5 197.5t47 247.5q0 46 -6.5 69.5t-18 32.5t-36.5 16q-25 8 -56 33q-32 25 -40 25q-62 0 -133 -90t-118 -218.5t-47 -233.5q0 -74 32 -114.5t96 -40.5z" />
    <glyph glyph-name="ampersand" unicode="&#x26;" horiz-adv-x="1593" 
d="M656 938q99 60 149 113q90 94 90 209q0 86 -45.5 139t-115.5 53q-75 0 -117 -53.5t-42 -143.5q0 -123 81 -317zM538 91q62 0 141.5 37.5t147.5 108.5q-95 134 -148 225t-163 312q-103 -67 -158 -134q-84 -104 -84 -240q0 -128 75 -218.5t189 -90.5zM485 852
q-38 90 -54 165q-18 77 -18 141q0 158 88 262.5t223 104.5q124 0 202.5 -74t78.5 -197q0 -232 -318 -386q91 -183 132.5 -255t137.5 -209q188 255 188 406q0 62 -41 85q-27 14 -90 20v47h441v-47q-67 -9 -100 -27q-54 -29 -92 -106l-52 -105q-54 -108 -91 -167t-115 -168
q42 -55 91 -105q112 -104 222 -104q65 0 112 35q29 23 75 85l30 -27q-6 -27 -42.5 -83t-68.5 -88q-53 -51 -121 -72q-39 -13 -80 -13q-98 0 -192 67q-61 44 -152 140q-90 -92 -182 -140q-120 -66 -264 -66q-160 0 -255.5 94.5t-95.5 256.5q0 148 82.5 264.5t242.5 216.5z
" />
    <glyph glyph-name="quotesingle" unicode="'" horiz-adv-x="369" 
d="M177 1443q44 0 60 -26t16 -79v-15q0 -2 -1 -7.5t-2 -16.5t-2 -21l-49 -484h-36l-52 448q-8 72 -8 107q0 94 74 94z" />
    <glyph glyph-name="parenleft" unicode="(" horiz-adv-x="682" 
d="M94 602q0 383 208 672q127 176 302 285l19 -36q-162 -142 -230 -274q-121 -232 -121 -619q0 -288 46 -471q81 -326 305 -488l-26 -36q-123 65 -266 254q-237 314 -237 713z" />
    <glyph glyph-name="parenright" unicode=")" horiz-adv-x="682" 
d="M583 591q0 -323 -153 -586q-79 -139 -211 -259q-86 -79 -146 -111l-19 36q154 129 225 263q126 238 126 628q0 318 -58 516q-81 282 -293 445l26 36q159 -98 294 -293q209 -302 209 -675z" />
    <glyph glyph-name="asterisk" unicode="*" 
d="M135 808q0 78 101 104q158 37 238 94q-77 51 -241 98q-98 29 -98 95q0 36 20.5 57.5t49.5 21.5q41 0 106 -83q65 -84 177 -155v29q0 90 -26 183q-27 92 -27 128q0 41 21 64.5t52 23.5q34 0 53 -24.5t19 -64.5q0 -26 -28 -119q-28 -91 -26 -225q83 66 100 82q18 16 43 46
q71 87 90 103q17 15 48 15q30 0 50.5 -24t20.5 -58q0 -70 -90 -91q-149 -34 -246 -104l17 -11q77 -51 232 -86q88 -19 88 -96q0 -37 -24.5 -58t-52.5 -21q-42 0 -114 96q-74 97 -148 136l-14 8v-15q0 -129 29 -216q28 -85 28 -107q0 -37 -23 -64.5t-58 -27.5q-32 0 -51.5 26
t-19.5 64q0 12 34 138t23 187l-3 15q-85 -52 -159 -144t-120 -92q-34 0 -52.5 21.5t-18.5 50.5z" />
    <glyph glyph-name="plus" unicode="+" horiz-adv-x="1155" 
d="M509 1138h140v-492h446v-154h-446v-492h-140v492h-448v154h448v492z" />
    <glyph glyph-name="comma" unicode="," horiz-adv-x="512" 
d="M502 52q0 -105 -69.5 -202t-160.5 -142l-19 44q87 54 128 121.5t41 122.5q0 24 -28 24l-67 -7q-45 0 -78.5 31.5t-33.5 85.5q0 50 31.5 89t92.5 39q66 0 114.5 -56.5t48.5 -149.5z" />
    <glyph glyph-name="hyphen" unicode="-" horiz-adv-x="682" 
d="M80 539h503v-141h-503v141z" />
    <glyph glyph-name="period" unicode="." horiz-adv-x="512" 
d="M334 -24q-48 0 -81 37t-33 88q0 52 33.5 88.5t80.5 36.5t80 -36.5t33 -88.5q0 -51 -32.5 -88t-80.5 -37z" />
    <glyph glyph-name="slash" unicode="/" horiz-adv-x="569" 
d="M459 1526h100l-453 -1560h-102z" />
    <glyph glyph-name="zero" unicode="0" 
d="M490 43q146 0 202 177q55 175 55 512q0 268 -33 427q-62 297 -232 297t-233 -306q-33 -164 -33 -429q0 -251 34 -399q64 -279 240 -279zM487 1515q230 0 357 -265q101 -216 101 -492q0 -218 -62 -413q-117 -364 -405 -364q-196 0 -324 197q-136 209 -136 571
q0 285 91 488q123 278 378 278z" />
    <glyph glyph-name="one" unicode="1" 
d="M606 1511q5 -7 5 -21v-1324q0 -82 38.5 -106.5t155.5 -28.5v-31h-564v33q122 7 158.5 37t36.5 128v1019q0 56 -13 81.5t-51 25.5q-43 0 -145 -49v31l367 205h12z" />
    <glyph glyph-name="two" unicode="2" 
d="M61 25q371 424 497 614q131 197 131 382q0 157 -77.5 245t-193.5 88q-136 0 -222 -110q-46 -60 -90 -186l-43 10q24 122 68.5 211.5t102 140.5t120.5 74.5t135 23.5q167 0 272.5 -115.5t105.5 -288.5q0 -180 -113 -347q-110 -164 -491 -595h459q97 0 136 25.5t87 122.5
l26 -13l-111 -307h-799v25z" />
    <glyph glyph-name="three" unicode="3" 
d="M159 193q55 0 146 -63q90 -63 153 -63q89 0 153.5 49.5t93.5 122.5t29 158q0 119 -55 207q-93 151 -314 151q-32 0 -53 -3l-2 28q172 69 258 152.5t86 211.5q0 115 -69.5 180.5t-168.5 65.5q-110 0 -194 -89q-46 -49 -99 -150l-31 8q40 167 149 267t252 100
q147 0 233.5 -89.5t86.5 -216.5q0 -106 -69 -196q-41 -52 -121 -113q95 -45 154 -105q109 -115 109 -293q0 -105 -39 -200t-110 -168.5t-181.5 -116.5t-244.5 -43q-123 0 -172 40q-50 41 -50 86q0 33 18 57.5t52 24.5z" />
    <glyph glyph-name="four" unicode="4" 
d="M663 1511h95v-990h209v-146h-209v-375h-159v375h-576v146zM597 1285l-491 -764h491v764z" />
    <glyph glyph-name="five" unicode="5" 
d="M153 203q58 0 150 -70q92 -71 142 -71q116 0 201.5 112.5t85.5 273.5q0 286 -276 410q-153 69 -285 69q-21 0 -27 2t-14 11q6 25 7 27l218 526h429q31 0 48.5 11t46.5 46l16 -16l-78 -203q-6 -15 -61 -15h-387l-85 -193q167 -32 240 -58q127 -47 209 -137
q146 -158 146 -381q0 -160 -71.5 -290t-199 -204.5t-285.5 -74.5q-98 0 -158 21q-100 34 -100 122q0 35 22.5 58.5t65.5 23.5z" />
    <glyph glyph-name="six" unicode="6" 
d="M958 503q0 -135 -52.5 -254.5t-151 -195t-219.5 -75.5q-88 0 -171.5 48t-149 132.5t-105 211t-39.5 272.5q0 390 280 667q251 233 562 233l5 -36q-128 -25 -217.5 -69.5t-159.5 -120.5q-75 -83 -138.5 -205.5t-86.5 -238.5q63 43 107 62q81 35 161 35q164 0 269.5 -124
t105.5 -342zM775 418q0 146 -42 260q-71 189 -238 189q-155 0 -206 -101q-30 -60 -30 -198q0 -93 17.5 -183.5t51.5 -167.5t91 -124.5t129 -47.5q76 0 128.5 52.5t75.5 134.5t23 186z" />
    <glyph glyph-name="seven" unicode="7" 
d="M919 1492v-36l-434 -1475h-132l405 1345h-436q-66 0 -104 -16t-67 -50.5t-76 -115.5l-35 17q67 183 81 218q4 12 10 28.5t15 42l15 42.5h758z" />
    <glyph glyph-name="eight" unicode="8" 
d="M515 40q111 0 172 68t61 178q0 49 -9.5 86.5t-27 71t-59.5 74.5t-89 80t-134 107q-81 -56 -122.5 -148.5t-41.5 -188.5q0 -148 70 -238t180 -90zM528 880q95 74 130 122q62 86 62 205q0 110 -61 180t-175 70q-91 0 -151.5 -63t-60.5 -155q0 -185 256 -359zM374 752
q-132 117 -180 186q-74 107 -74 233q0 148 110.5 248t283.5 100q156 0 253.5 -93.5t97.5 -224.5q0 -130 -97 -231q-52 -55 -181 -134q178 -145 247.5 -247t69.5 -237q0 -161 -110 -267.5t-289 -106.5q-166 0 -281 101t-115 261q0 140 81 246q50 68 184 166z" />
    <glyph glyph-name="nine" unicode="9" 
d="M511 635q64 0 138 40.5t85 71.5q4 11 7 80t3 117q0 235 -71.5 375t-203.5 140q-101 0 -160 -100.5t-59 -290.5q0 -85 13.5 -158.5t42.5 -137t81.5 -100.5t123.5 -37zM483 1522q106 0 194.5 -52.5t145.5 -140.5t88.5 -199.5t31.5 -231.5q0 -171 -58 -343t-165 -305
q-127 -156 -322 -232q-110 -44 -275 -66l-10 44q102 25 173 56q124 54 199 132q98 103 164.5 238.5t84.5 238.5l-35 -28q-75 -63 -174 -85q-51 -13 -95 -13q-110 0 -195.5 61.5t-129.5 163t-44 224.5q0 235 118.5 386.5t303.5 151.5z" />
    <glyph glyph-name="colon" unicode=":" horiz-adv-x="569" 
d="M388 916q0 -53 -34 -89t-79 -36q-47 0 -78.5 37t-31.5 87t32 86t78 36q45 0 79 -35.5t34 -85.5zM272 -17q-42 0 -74.5 37t-32.5 87q0 51 32 87t79 36q48 0 82.5 -35.5t34.5 -86.5q0 -50 -34 -87.5t-87 -37.5z" />
    <glyph glyph-name="semicolon" unicode=";" horiz-adv-x="569" 
d="M457 52q0 -104 -69 -201.5t-161 -142.5l-19 44q87 54 128 121.5t41 122.5q0 24 -28 24l-67 -7q-45 0 -78.5 31.5t-33.5 85.5q0 50 31.5 89t92.5 39q66 0 114.5 -56.5t48.5 -149.5zM286 813q-48 0 -80.5 37t-32.5 89t33 88.5t80 36.5t80.5 -36.5t33.5 -88.5t-33 -89
t-81 -37z" />
    <glyph glyph-name="less" unicode="&#x3c;" horiz-adv-x="1155" 
d="M1095 150v-167l-1034 558v60l1034 558v-167l-766 -419z" />
    <glyph glyph-name="equal" unicode="=" horiz-adv-x="1155" 
d="M1095 849v-154h-1034v154h1034zM1095 395v-154h-1034v154h1034z" />
    <glyph glyph-name="greater" unicode="&#x3e;" horiz-adv-x="1155" 
d="M18 992v167l1115 -558v-60l-1115 -558v167l847 423z" />
    <glyph glyph-name="question" unicode="?" horiz-adv-x="909" 
d="M594 101q0 -50 -33 -85t-78 -35q-47 0 -79 34.5t-32 85.5q0 50 33 85t76 35q46 0 79.5 -35.5t33.5 -84.5zM491 1523q158 0 258 -96t100 -261q0 -143 -153 -356q-168 -233 -196 -439h-36q0 42 11.5 116.5t26.5 129.5q16 55 81 219q78 193 78 318q0 127 -58.5 214.5
t-169.5 87.5q-76 0 -134 -46.5t-58 -92.5q0 -23 41 -75t41 -95q0 -37 -24.5 -64t-59.5 -27q-42 0 -73 40t-31 109q0 58 23 114t65.5 102t112.5 74t155 28z" />
    <glyph glyph-name="at" unicode="@" horiz-adv-x="1886" 
d="M749 554q0 -72 33.5 -113.5t89.5 -41.5t108 62.5t84.5 149.5t52 172t19.5 137q0 57 -29 90t-81 33q-65 0 -130.5 -80t-106 -194.5t-40.5 -214.5zM949 -29q-315 0 -539 209q-226 211 -226 516q0 344 248 587q247 242 595 242q272 0 460 -166q198 -175 198 -450
q0 -144 -58.5 -281t-155.5 -222.5t-202 -85.5q-107 0 -158 72q-33 48 -35 106q-24 -70 -92 -124.5t-141 -54.5q-115 0 -191.5 86t-76.5 225q0 121 61 237t158.5 188t199.5 72q70 0 120.5 -39t65.5 -100l33 112h164l-55 -187q-34 -112 -60 -215q-42 -160 -42 -201
q0 -20 14 -50q24 -46 74 -46q48 0 101.5 40t98.5 106.5t74 162t29 196.5q0 100 -32 187t-87.5 149.5t-128.5 107.5t-156 67t-170 22q-268 0 -483 -203q-232 -220 -232 -538q0 -295 194 -477q184 -172 462 -172q97 0 208 31q174 47 297 149l38 -62q-149 -105 -282 -150.5
t-290 -45.5z" />
    <glyph glyph-name="A" unicode="A" horiz-adv-x="1479" 
d="M30 0v41q78 10 119 66q38 54 135 304l427 1106h40l510 -1277q35 -88 58.5 -126t48 -51.5t77.5 -21.5v-41h-521v41q91 8 116 21q26 14 26 62q0 47 -38 147l-85 216h-536q-83 -229 -95 -270q-16 -48 -16 -77q0 -58 42 -80q24 -13 98 -19v-41h-406zM914 579l-237 620
l-234 -620h471z" />
    <glyph glyph-name="B" unicode="B" horiz-adv-x="1366" 
d="M609 81q83 0 146.5 15.5t115.5 51.5t79.5 101t27.5 157t-32 157t-93 102t-137.5 53t-177.5 16h-59q-22 0 -39 1v-561q0 -59 30.5 -76t138.5 -17zM35 41q66 4 101 11.5t58.5 30.5t30.5 59t7 102v1002q0 52 -5 84.5t-16.5 56t-35.5 35.5t-55.5 18t-84.5 9v41h574
q259 0 397 -91t138 -295q0 -159 -101 -242q-57 -46 -171 -78q154 -40 247.5 -131t93.5 -238q0 -264 -222 -363q-116 -52 -288 -52h-668v41zM635 824q103 2 171 36q130 66 130 237q0 201 -150 271q-82 39 -252 39q-64 0 -79 -12t-15 -66v-508z" />
    <glyph glyph-name="C" unicode="C" horiz-adv-x="1366" 
d="M758 1520q111 0 228 -36t131 -36q31 0 56.5 18.5t34.5 53.5h43l19 -506h-47q-40 150 -107 243q-126 174 -339 174q-218 0 -353 -189.5t-135 -512.5q0 -297 142.5 -479t364.5 -182q159 0 293 84q78 47 169 143l38 -42q-68 -95 -169 -166q-172 -121 -373 -121
q-331 0 -524 232q-179 215 -179 536q0 328 189 552q200 234 518 234zM751 1520z" />
    <glyph glyph-name="D" unicode="D" horiz-adv-x="1479" 
d="M421 174q0 -55 24.5 -72.5t101.5 -17.5q240 0 395 104q238 160 238 549q0 346 -196 521q-168 150 -445 150q-71 0 -94.5 -17t-23.5 -72v-1145zM33 41q41 5 65.5 9t47 13.5t33.5 22t20 35t11.5 51t2.5 72.5v1002q0 122 -32.5 158t-147.5 45v41h552q278 0 472 -101
q348 -181 348 -649q0 -172 -64 -323t-187 -253q-77 -64 -166 -100q-156 -64 -386 -64h-569v41z" />
    <glyph glyph-name="E" unicode="E" horiz-adv-x="1251" 
d="M23 41q42 5 66 9t47 13.5t34 22t19.5 35t11 51t2.5 72.5v1002q0 120 -33 157t-147 46v41h1088l7 -323h-52q-9 54 -18 87.5t-25 62.5t-35 44t-53 26t-75 14.5t-104 3.5h-278q-43 0 -54.5 -14.5t-11.5 -61.5v-503h315q45 0 75.5 3.5t54 14.5t37.5 24.5t25.5 41t18 56
t14.5 77.5h48v-522h-48q-13 73 -24 109t-35.5 63.5t-61.5 35.5t-104 8h-315v-558q0 -67 39 -79q37 -12 230 -12q90 0 148 6t111.5 23t90.5 50t70 84.5t65 129.5h57l-93 -381h-1107v41z" />
    <glyph glyph-name="F" unicode="F" horiz-adv-x="1139" 
d="M23 41q45 5 69.5 9.5t48 15.5t33.5 23.5t18 39.5t9.5 58t1.5 84v975q0 120 -33 157t-147 46v41h1091l7 -323h-57q-7 54 -16 90t-25.5 63.5t-37 43t-55 25.5t-74 13t-100.5 3h-280q-40 0 -52 -15t-12 -61v-503h296q45 0 75.5 3.5t54 14.5t37.5 24.5t25.5 41t18 56
t14.5 77.5h48v-522h-48q-13 73 -24 109t-35.5 63.5t-61.5 35.5t-104 8h-296v-493q0 -85 15 -124.5t51.5 -55.5t118.5 -23v-41h-574v41z" />
    <glyph glyph-name="G" unicode="G" horiz-adv-x="1479" 
d="M758 1520q118 0 234 -36q114 -37 132 -37q41 0 60.5 17t33.5 56h45l16 -474h-47q-64 166 -130 244q-122 141 -315 141q-102 0 -189 -40.5t-157 -123t-110 -221.5t-40 -322q0 -152 39.5 -277.5t109.5 -209t164.5 -129t203.5 -45.5q91 0 182 32q71 26 90 45t19 58v359
q0 67 -6 103t-28.5 58.5t-53 29t-92.5 11.5v41h522v-41q-76 -6 -101 -28q-42 -35 -42 -145v-443q0 -26 -82 -67t-207 -73t-227 -32q-300 0 -506 192q-227 213 -227 570q0 316 181 539q200 248 528 248z" />
    <glyph glyph-name="H" unicode="H" horiz-adv-x="1479" 
d="M33 41q45 5 69.5 9.5t48 15t33 23.5t18 39.5t10 58.5t1.5 84v975q0 120 -33 157t-147 46v41h569v-41q-114 -9 -147.5 -46t-33.5 -157v-439h621v439q0 120 -33 157t-147 46v41h569v-41q-114 -9 -147 -46t-33 -157v-1002q0 -121 32.5 -156.5t147.5 -46.5v-41h-569v41
q45 5 70 9t48 15t33 23.5t18 39.5t9.5 58.5t1.5 84.5v437h-621v-464q0 -64 6.5 -99.5t28 -58.5t53.5 -31.5t93 -13.5v-41h-569v41z" />
    <glyph glyph-name="I" unicode="I" horiz-adv-x="682" 
d="M33 41q70 5 103 12t58 29t31.5 58t6.5 104v1002q0 65 -7 101t-30.5 59t-59 31t-102.5 12v41h606v-41q-67 -4 -102.5 -12t-59 -31t-30.5 -59t-7 -101v-1002q0 -68 6.5 -104t31.5 -58t58 -29t103 -12v-41h-606v41z" />
    <glyph glyph-name="J" unicode="J" horiz-adv-x="797" 
d="M21 132q0 56 28 84t68 28q69 0 102 -94t70 -94q39 0 56 39q15 37 15 134v1020q0 65 -7 101t-30.5 58.5t-57 30.5t-95.5 12v42h588v-42q-119 -8 -154.5 -46.5t-35.5 -155.5v-828q0 -225 -99 -335t-245 -110q-92 0 -147.5 46.5t-55.5 109.5z" />
    <glyph glyph-name="K" unicode="K" horiz-adv-x="1479" 
d="M37 41q45 4 72 8.5t50 15.5t33.5 24.5t18 40.5t9.5 58t2 83v975q0 122 -33.5 158t-151.5 45v41h584v-41q-120 -7 -155 -44.5t-35 -158.5v-462q184 172 309 302q215 226 215 289q0 43 -34 58.5t-106 15.5v41h536v-36q-100 -11 -156.5 -43.5t-154.5 -138.5l-389 -420
l477 -566q133 -157 181 -196q47 -38 141 -52v-38h-626v41q85 3 115 15q30 10 30 45q0 20 -19 58q-20 39 -62 88l-388 469l-69 -65v-407q0 -65 6.5 -100.5t29 -58t54.5 -30.5t95 -14v-41h-579v41z" />
    <glyph glyph-name="L" unicode="L" horiz-adv-x="1251" 
d="M23 41q42 5 66 9t47 13.5t34 22t19.5 35t11 51t2.5 72.5v1002q0 120 -33 157t-147 46v41h579v-41q-115 -7 -152.5 -42t-37.5 -145v-1083q0 -40 12.5 -60t49.5 -26q15 -2 49 -4q17 -1 95 -1q98 0 159.5 3t119 15.5t91 30.5t68.5 54.5t60 81.5t57 117h52l-100 -390h-1102
v41z" />
    <glyph glyph-name="M" unicode="M" horiz-adv-x="1821" 
d="M23 41q45 5 73.5 11.5t53 20t37 31.5t21.5 51t11.5 73.5t2.5 102.5v915q0 122 -35 159t-159 44v41h405l474 -1136l453 1136h408v-41q-114 -9 -147 -46t-33 -157v-1002q0 -121 32 -156.5t148 -46.5v-41h-574v41q45 4 71.5 8.5t49.5 15.5t34 24.5t18.5 40.5t9.5 58.5
t2 82.5v1012l-524 -1283h-28l-515 1230v-899q0 -186 49 -241q31 -35 143 -49v-41h-481v41z" />
    <glyph glyph-name="N" unicode="N" horiz-adv-x="1479" 
d="M23 43q45 5 73.5 11.5t53 20t37 31.5t21.5 51t11.5 73.5t2.5 102.5v994l-28 36q-43 56 -74 71t-97 17v42h351l789 -1085v754q0 186 -50 242q-33 36 -146 47v42h481v-42q-50 -5 -80.5 -14t-55 -26.5t-36 -50t-17.5 -79t-6 -119.5v-1186h-35l-906 1235v-878q0 -185 49 -240
q31 -36 143 -50v-41h-481v41z" />
    <glyph glyph-name="O" unicode="O" horiz-adv-x="1479" 
d="M293 748q0 -174 33.5 -308.5t93.5 -218.5t139 -126.5t173 -42.5q93 0 170.5 41t138.5 123.5t95 218.5t34 313q0 178 -34.5 314.5t-96 218.5t-139 122.5t-168.5 40.5q-194 0 -316.5 -177.5t-122.5 -518.5zM61 748q0 360 206 578q189 199 465 199q277 0 466 -200
q205 -217 205 -577q0 -366 -212 -583q-191 -194 -459 -194q-288 0 -478 214q-193 218 -193 563z" />
    <glyph glyph-name="P" unicode="P" horiz-adv-x="1139" 
d="M886 1081q0 207 -162 284q-87 42 -220 42q-62 0 -77 -13t-15 -62v-587q26 -3 72 -7q11 -1 33 -1q140 0 222 44q147 79 147 300zM33 41q42 4 67.5 9t47 16.5t32 25t17.5 40.5t9 58t2 81v975q0 118 -32.5 155.5t-142.5 47.5v41h540q256 0 396 -109.5t140 -293.5
q0 -112 -40 -197t-113 -137t-169 -77.5t-214 -25.5q-16 0 -84 2q-35 1 -77 1v-409q0 -66 6.5 -101.5t30 -58t57 -30.5t100.5 -13v-41h-573v41z" />
    <glyph glyph-name="Q" unicode="Q" horiz-adv-x="1479" 
d="M293 781q0 -340 122 -517.5t317 -177.5q74 0 138.5 25.5t120 80t95 135t62 196.5t22.5 258q0 179 -34.5 315.5t-96 218t-139 122t-168.5 40.5q-94 0 -172.5 -42.5t-138.5 -126t-94 -218.5t-34 -309zM61 781q0 361 206 579q189 199 465 199q271 0 462 -197
q209 -218 209 -581q0 -288 -133 -487q-145 -216 -408 -271q124 -197 300 -279q96 -45 267 -68v-41h-84q-321 0 -528 120q-105 59 -194 164q-90 106 -100 112l-26 13q-170 87 -263 198q-173 206 -173 539z" />
    <glyph glyph-name="R" unicode="R" horiz-adv-x="1366" 
d="M407 771q222 9 316 51q163 73 163 277q0 196 -146 267q-78 39 -207 39q-60 0 -85 -6t-33 -21t-8 -51v-556zM23 41q42 4 68 9t47.5 16t32 25t17.5 41t9 57.5t2 81.5v975q0 62 -6 97t-27 58.5t-53 33t-90 14.5v41h567q178 0 295 -49q224 -95 224 -344q0 -315 -370 -378
l422 -571q40 -53 79 -77t99 -30v-41h-330l-488 693l-114 -6v-443q0 -65 6.5 -100.5t29 -58t54.5 -30.5t95 -14v-41h-569v41z" />
    <glyph glyph-name="S" unicode="S" horiz-adv-x="1139" 
d="M132 456q54 -155 122 -242q121 -157 303 -157q102 0 171.5 70t69.5 188q0 110 -72 191q-46 52 -198 156l-175 119q-80 56 -126 112q-87 107 -87 235q0 173 104 285t272 112q69 0 169 -38q99 -38 112 -38q36 0 51 18t24 58h42l45 -480h-49q-24 104 -66.5 182t-94.5 121.5
t-106.5 64.5t-111.5 21q-87 0 -148 -56t-61 -150q0 -86 48 -148q48 -63 149 -131l180 -122q169 -115 238 -211q68 -97 68 -228q0 -178 -122 -296.5t-310 -118.5q-96 0 -198 40q-103 39 -119 39q-55 0 -65 -76h-45l-61 480h47z" />
    <glyph glyph-name="T" unicode="T" horiz-adv-x="1251" 
d="M40 1490h1157l11 -382h-49q-13 65 -24 105.5t-29 75.5t-38.5 53.5t-54.5 32t-75.5 18t-103.5 4.5h-114v-1153q0 -68 6.5 -104t31.5 -58t58 -29t103 -12v-41h-597v41q48 4 75 8t51.5 15t35.5 24t19.5 40t10.5 58.5t2 84.5v1126h-114q-118 0 -178 -23t-92.5 -82t-53.5 -184
h-50z" />
    <glyph glyph-name="U" unicode="U" horiz-adv-x="1479" 
d="M609 1493v-41q-63 -5 -96.5 -13.5t-56 -31t-29 -58.5t-6.5 -100v-720q0 -176 44 -276q82 -181 311 -181q251 0 337 185q48 104 48 319v586q0 93 -8 146.5t-33 84t-57 41.5t-94 18v41h474v-41q-85 -11 -122.5 -33.5t-53.5 -79t-16 -177.5v-586q0 -232 -65 -364
q-120 -241 -456 -241q-332 0 -452 238q-65 128 -65 336v704q0 64 -6.5 99.5t-28.5 58.5t-55 31.5t-95 13.5v41h581z" />
    <glyph glyph-name="V" unicode="V" horiz-adv-x="1479" 
d="M578 1493v-42q-79 -2 -105 -11q-49 -18 -49 -71q0 -27 18 -77q15 -46 65 -167l320 -784l291 849q39 117 39 158q0 66 -51 88q-30 14 -99 15v42h419v-39q-66 -11 -96 -38q-47 -44 -93 -173l-453 -1267h-31l-505 1239q-64 157 -102 196q-40 39 -113 43v39h545z" />
    <glyph glyph-name="W" unicode="W" horiz-adv-x="1933" 
d="M511 1493v-42q-61 -1 -87 -12q-46 -19 -46 -68q0 -32 22 -97l296 -847l218 636l-97 271q-27 76 -81 101q-30 14 -97 16v42h548v-42q-78 -2 -106 -12q-46 -19 -46 -77q0 -22 4 -35q9 -30 20 -61l296 -845l256 765q22 64 30 115q5 32 5 47q0 62 -54 87q-32 15 -90 16v42
h406v-42q-56 -9 -84 -27q-52 -31 -78 -110l-218 -670l-85 -259l-123 -409h-31l-83 261l-244 693l-315 -954h-31l-147 469l-176 526q-111 329 -151 401q-44 75 -133 79v42h502z" />
    <glyph glyph-name="X" unicode="X" horiz-adv-x="1479" 
d="M21 41q83 11 126 49q40 34 170 209l320 434l-227 361q-145 232 -206 293q-61 58 -159 62v41h618v-41q-92 -5 -116 -14q-41 -14 -41 -62q0 -29 20 -74q12 -26 28 -51l213 -338l233 310q51 68 69 108q11 25 11 44q0 49 -44 66q-24 9 -98 11v41h486v-41q-81 -3 -127 -29
q-73 -45 -176 -185l-301 -407l393 -620q61 -96 102 -125t126 -42v-41h-607v44q86 1 122 17q34 13 34 54q0 37 -46 117q-51 88 -255 419l-242 -336q-56 -78 -74 -108q-33 -54 -33 -81q0 -49 52 -68q33 -13 105 -17v-41h-476v41z" />
    <glyph glyph-name="Y" unicode="Y" horiz-adv-x="1479" 
d="M618 1490v-41q-76 2 -110 -13.5t-34 -60.5q0 -14 6 -35q6 -22 27 -57l303 -501l294 508q18 31 24 53q5 23 5 31q0 47 -47 64q-26 9 -96 11v41h448v-41q-63 -5 -111 -41q-77 -59 -171 -217l-303 -508v-439q0 -69 7 -105t32.5 -58.5t62 -29t109.5 -10.5v-41h-626v41
q50 3 80 7t55.5 14.5t37.5 23.5t20.5 40.5t10.5 59.5t2 85v391l-268 432q-141 225 -195 287q-56 63 -136 68v41h573z" />
    <glyph glyph-name="Z" unicode="Z" horiz-adv-x="1251" 
d="M14 25l898 1380h-472q-178 0 -253 -98q-45 -59 -71 -202h-53l41 385h1081v-25l-889 -1379h526q178 0 261 93q52 61 92 217h48l-50 -396h-1159v25z" />
    <glyph glyph-name="bracketleft" unicode="[" horiz-adv-x="682" 
d="M180 1523h431v-54h-182q-60 0 -81 -42q-12 -23 -12 -60v-1515q0 -52 13 -75q22 -43 87 -43h175v-57h-431v1846z" />
    <glyph glyph-name="backslash" unicode="\" horiz-adv-x="569" 
d="M73 1522l559 -1522h-135l-561 1522h137z" />
    <glyph glyph-name="bracketright" unicode="]" horiz-adv-x="682" 
d="M500 -323h-432v55h183q58 0 81 41q11 24 11 60v1516q0 59 -21 88t-78 29h-176v57h432v-1846z" />
    <glyph glyph-name="asciicircum" unicode="^" horiz-adv-x="961" 
d="M507 1470l386 -951h-137l-275 712l-278 -712h-137l386 951h55z" />
    <glyph glyph-name="underscore" unicode="_" 
d="M0 -256v111h1023v-111h-1023z" />
    <glyph glyph-name="grave" unicode="`" horiz-adv-x="682" 
d="M440 1048h-83l-315 219q-33 24 -47.5 45.5t-14.5 50.5q0 30 20.5 51t48.5 21q40 0 90 -54z" />
    <glyph glyph-name="a" unicode="a" horiz-adv-x="909" 
d="M587 611q-114 -42 -190 -93q-144 -98 -144 -222q0 -100 60 -147q38 -31 87 -31q70 0 128.5 42t58.5 102v349zM75 220q0 161 145 267q92 66 367 179v93q0 112 -20 157q-34 73 -141 73q-51 0 -97 -28q-46 -30 -46 -82q0 -9 5 -44t5 -40q0 -62 -37 -86q-21 -15 -50 -15
q-43 0 -68 31.5t-25 73.5q0 40 22.5 82t63.5 79t107.5 60.5t146.5 23.5q194 0 263 -138q37 -75 37 -221v-442q0 -61 8 -88q13 -42 54 -42q23 0 38 7.5t52 37.5v-58q-31 -41 -69 -70q-56 -42 -114 -42q-64 0 -96.5 45.5t-35.5 118.5q-78 -73 -130 -108q-92 -59 -173 -59
q-88 0 -150 67t-62 168z" />
    <glyph glyph-name="b" unicode="b" 
d="M7 1401v37q105 26 205 64q93 35 98 35q2 -8 2 -13v-670q26 54 78 100q92 83 212 83q150 0 252.5 -138t102.5 -353q0 -155 -60.5 -283.5t-173.5 -205t-256 -76.5q-110 0 -217.5 48.5t-107.5 96.5v1163q0 67 -17.5 92.5t-72.5 25.5zM308 162q8 -51 71.5 -78.5t127.5 -27.5
q134 0 204.5 110.5t70.5 284.5q0 85 -15.5 162t-47 140.5t-84 101.5t-120.5 38q-76 0 -141.5 -49.5t-65.5 -120.5v-561z" />
    <glyph glyph-name="c" unicode="c" horiz-adv-x="909" 
d="M509 1039q123 0 214.5 -70t91.5 -156q0 -40 -24.5 -69.5t-69.5 -29.5q-36 0 -62 26.5t-38 76.5l-12 53q-13 58 -45 82q-34 23 -87 23q-116 0 -193.5 -111t-77.5 -289q0 -112 38.5 -209t112.5 -159t169 -62q104 0 185 75q45 42 104 136l28 -19q-57 -133 -120 -209
q-121 -147 -280 -147q-162 0 -279 139.5t-117 363.5q0 150 59 277t165.5 202.5t237.5 75.5z" />
    <glyph glyph-name="d" unicode="d" 
d="M485 1041q72 0 134 -35q37 -20 77 -64v350q0 70 -14.5 94t-63.5 24q-15 0 -21 -1q-2 0 -15 -1.5t-25 -3.5v37l82 23q94 27 169 55q14 4 53 21l6 -3l-2 -115q-3 -252 -3 -261l-2 -898q0 -77 17.5 -103t83.5 -26q29 0 44 3v-36q-2 0 -17 -6t-52 -20t-76 -29l-157 -65l-7 10
v135q-54 -66 -97 -96q-73 -49 -169 -49q-110 0 -198.5 67t-135.5 176t-47 237q0 156 57.5 289.5t158 212t220.5 78.5zM522 100q73 0 123.5 48t50.5 98v472q0 68 -19.5 120.5t-50.5 82t-65.5 44t-69.5 14.5q-123 0 -194.5 -120t-71.5 -305q0 -90 19 -171t55 -144.5t94 -101
t129 -37.5z" />
    <glyph glyph-name="e" unicode="e" horiz-adv-x="909" 
d="M469 1034q148 0 250.5 -110.5t102.5 -300.5h-635q9 -243 100.5 -366t229.5 -123q101 0 173.5 57.5t136.5 174.5l35 -13q-29 -97 -86.5 -180t-148.5 -140t-194 -57q-121 0 -212 73t-136 189t-45 254q0 147 53.5 270.5t152.5 197.5t223 74zM411 954q-114 0 -174 -111
q-33 -63 -46 -150h422q-10 109 -38 164q-49 97 -164 97z" />
    <glyph glyph-name="f" unicode="f" horiz-adv-x="682" 
d="M40 31q107 5 140 43.5t33 159.5v706h-171v74h171q0 175 43 294q83 230 301 230q92 0 159.5 -39.5t67.5 -102.5q0 -37 -24.5 -65.5t-57.5 -28.5q-28 0 -49 18.5t-51 68.5l-17 29q-34 55 -86 55q-76 0 -103 -83q-15 -44 -15 -115v-261h251v-74h-249v-706q0 -45 2 -72
t9.5 -51t19 -36t34.5 -22t51 -14.5t74 -7.5v-31h-533v31z" />
    <glyph glyph-name="g" unicode="g" 
d="M201 -159q0 -44 25 -77t70 -51t98.5 -26.5t117.5 -8.5q164 0 269 63t105 156q0 74 -84 98q-55 14 -197 17q-91 2 -153 6q-52 2 -144 22q-12 0 -59 -69q-48 -71 -48 -130zM331 414q-89 32 -140.5 116.5t-51.5 191.5q0 65 24 128.5t68 115.5t113 84t151 32q71 0 161 -38
t169 -38q6 0 64 2q28 1 61 1h12v-89h-173q17 -44 28 -80q17 -66 17 -121q0 -133 -98 -234.5t-251 -101.5q-29 0 -90 10q-29 0 -76.5 -54t-47.5 -88q0 -35 70 -51q49 -11 102 -11q256 0 349 -32q151 -52 151 -222q0 -83 -49.5 -156.5t-127.5 -121.5t-171.5 -75.5
t-184.5 -27.5q-156 0 -256 70t-100 157q0 39 26 77q28 41 100 113l66 65l12 13q-45 19 -69 38q-40 34 -40 79q0 39 35 89q34 49 147 159zM521 436q55 0 92 33q60 53 60 184q0 56 -12 116.5t-36 118t-66 94.5t-96 37q-97 0 -135 -102q-19 -53 -19 -133q0 -139 60.5 -243.5
t151.5 -104.5z" />
    <glyph glyph-name="h" unicode="h" 
d="M18 31q59 9 84.5 24t37 53.5t11.5 120.5v1056q0 66 -16 93t-69 27q-7 0 -21 -2q-2 0 -10.5 -1.5t-13.5 -2.5v40q32 10 109 35q48 14 89 29l96 33l2 -8v-676q64 80 112 117q89 66 190 66q162 0 221 -150q32 -81 32 -207v-449q0 -80 11 -118.5t35.5 -55t78.5 -24.5v-31
h-433v31q62 9 88.5 24.5t37.5 53t11 120.5v445q0 116 -35 177.5t-120 61.5q-36 0 -78.5 -18.5t-73 -43t-51.5 -47.5t-21 -33v-542q0 -84 12 -122t37.5 -52.5t87.5 -23.5v-31h-441v31z" />
    <glyph glyph-name="i" unicode="i" horiz-adv-x="569" 
d="M168 1420q0 48 30 82t74 34q43 0 73.5 -34t30.5 -82q0 -47 -30.5 -80.5t-73.5 -33.5q-44 0 -74 33t-30 81zM40 31q41 4 62.5 7.5t43 12.5t30 20t16.5 34t9.5 50.5t1.5 73.5v524q0 72 -9 99q-15 46 -63 46q-7 0 -21 -2q-28 -8 -61 -18v34l43 15q168 60 244 95q27 13 36 13
q2 -10 2 -16v-790q0 -53 4 -84.5t12 -54t27.5 -33.5t42.5 -16.5t66 -9.5v-31h-486v31z" />
    <glyph glyph-name="j" unicode="j" horiz-adv-x="569" 
d="M225 1465q0 48 30 81.5t74 33.5q43 0 73.5 -34t30.5 -81t-30.5 -81t-73.5 -34q-44 0 -74 33.5t-30 81.5zM-36 -235q52 0 102 -69t87 -69q62 0 85 80q12 44 14 162q1 27 1 200v724q0 81 -14 113.5t-59 32.5q-28 0 -83 -19v34l85 31q59 21 175 68l60 24q4 -7 4 -16v-1016
q0 -189 -44 -297q-79 -196 -306 -196q-77 0 -133 34t-56 87q0 37 23.5 64.5t58.5 27.5z" />
    <glyph glyph-name="k" unicode="k" 
d="M4 31q98 7 127.5 35t29.5 119v1102q0 73 -21.5 96.5t-71.5 23.5q-35 0 -64 -5v31l90 27q97 27 175 56q42 16 51 16q6 0 7.5 -2.5t1.5 -12.5v-925l277 268q31 31 41 48q10 16 10 30q0 26 -22 33q-23 6 -81 9v31h417v-31q-111 -7 -180 -49q-66 -40 -261 -236l-59 -59
l185 -264q144 -205 214 -269q71 -66 153 -74v-29h-445v31l35 2q45 2 45 30q0 19 -19 46l-310 449v-407q0 -77 51 -102q29 -14 103 -16v-33h-479v31z" />
    <glyph glyph-name="l" unicode="l" horiz-adv-x="569" 
d="M42 31q95 10 127 41.5t32 122.5v1074q0 72 -11 100q-20 47 -81 47q-21 0 -72 -14v37q132 38 325 105q8 0 9 -6q1 -5 1 -29v-1319q0 -94 29.5 -123t124.5 -36v-31h-484v31z" />
    <glyph glyph-name="m" unicode="m" horiz-adv-x="1593" 
d="M33 29q79 8 104 28q40 31 40 128v568q0 79 -18.5 105.5t-65.5 26.5q-32 0 -56 -9v38l72 26q32 12 128 53q87 37 94 37q4 0 6 -5q1 -4 1 -22v-148q97 97 169.5 136t149.5 39q102 0 164 -77q32 -43 53 -114q75 84 129 122q95 69 194 69q161 0 215 -145q31 -80 31 -257v-456
q0 -77 30.5 -106t114.5 -37v-29h-451v31q88 9 115 39t27 120v474q0 107 -21 158q-38 90 -145 90q-64 0 -129 -47q-37 -28 -91 -88v-564q0 -95 30.5 -138t118.5 -46v-29h-459v29q42 6 64.5 13t41.5 20t26.5 40t11 63t3.5 98v308q0 167 -20 233q-33 108 -140 108
q-59 0 -118.5 -36t-105.5 -97v-602q0 -86 27.5 -116.5t114.5 -31.5v-29h-455v29z" />
    <glyph glyph-name="n" unicode="n" 
d="M37 31q76 10 102 41t26 128v558q0 70 -12 99q-19 42 -78 42q-12 0 -18 -1q-2 0 -10.5 -1.5t-13.5 -2.5v39q81 27 194 68l94 34q10 0 10 -21v-162q94 97 144 130q78 54 162 54q69 0 124 -43q108 -83 108 -298v-514q0 -79 29 -114t97 -36v-31h-427v31q52 8 78 23.5t39.5 54
t13.5 112.5v470q0 219 -150 219q-58 0 -120 -44q-33 -24 -88 -84v-616q0 -76 30.5 -104.5t102.5 -30.5v-31h-437v31z" />
    <glyph glyph-name="o" unicode="o" 
d="M52 513q0 145 57 264t161 188.5t234 69.5q200 0 329 -144.5t129 -379.5q0 -146 -56.5 -269.5t-161 -198t-234.5 -74.5q-193 0 -325.5 155.5t-132.5 388.5zM476 969q-78 0 -137 -57q-100 -100 -100 -346q0 -134 35 -254t106.5 -200t162.5 -80q110 0 171.5 111.5
t61.5 298.5q0 97 -20 189.5t-56.5 168.5t-95 122.5t-128.5 46.5z" />
    <glyph glyph-name="p" unicode="p" 
d="M327 247q52 -149 199 -149q112 0 186.5 121.5t74.5 326.5q0 194 -76 298.5t-188 104.5q-72 0 -134 -49.5t-62 -99.5v-553zM9 -410q89 6 117 41.5t28 120.5v1056q0 82 -17.5 106.5t-70.5 24.5q-19 0 -48 -6v37l95 34q15 5 201 76q10 0 10 -17v-148q66 72 116 107
q91 62 185 62q143 0 240 -132t97 -351q0 -146 -54 -278.5t-151.5 -216t-214.5 -83.5q-56 0 -97 15q-63 22 -118 85v-360q0 -38 2.5 -63t11 -44.5t19 -29.5t33.5 -17.5t46 -10.5t65 -6v-38h-495v36z" />
    <glyph glyph-name="q" unicode="q" 
d="M488 162q75 0 140 39q47 27 57.5 49t10.5 84v464q0 87 -24 135q-45 88 -170 88q-91 0 -155 -61t-93 -154.5t-29 -208.5q0 -198 69.5 -316.5t193.5 -118.5zM511 1082q67 0 120 -21q37 -15 106 -57l111 72q8 4 14 6q7 -7 7 -21v-1338q0 -59 19 -87q28 -42 112 -51v-31h-484
v36q96 1 136 35.5t40 139.5v419q-70 -76 -121 -109q-84 -54 -189 -54q-64 0 -123 33t-106 94t-75.5 158t-28.5 216q0 151 58 278.5t164.5 204.5t239.5 77z" />
    <glyph glyph-name="r" unicode="r" horiz-adv-x="682" 
d="M9 36q94 9 123 37t29 114v496q0 109 -18 156q-19 46 -68 46q-18 0 -61 -9v36q57 22 117 45q63 23 83 33q49 21 103 47q7 0 9 -5q1 -4 1 -23v-181q67 104 126.5 156t120.5 52q51 0 83 -33.5t32 -84.5q0 -45 -24.5 -75.5t-61.5 -30.5q-39 0 -76 39q-40 38 -61 38
q-38 0 -87.5 -64t-49.5 -127v-496q0 -93 39.5 -130.5t133.5 -35.5v-36h-493v36z" />
    <glyph glyph-name="s" unicode="s" horiz-adv-x="797" 
d="M106 348h33q22 -123 62 -192q71 -123 205 -123q74 0 118 45t44 119q0 101 -113 172l-112 71q-125 73 -182 147.5t-57 172.5q0 122 80 201.5t201 79.5q54 0 117 -22q62 -22 71 -22q29 0 40 23h24l7 -306h-31q-19 106 -54 166q-62 110 -179 110q-68 0 -109 -46.5
t-41 -112.5q0 -101 138 -180l132 -78q213 -127 213 -297q0 -130 -88.5 -212.5t-231.5 -82.5q-61 0 -136 22t-90 22q-22 0 -35 -32h-26v355z" />
    <glyph glyph-name="t" unicode="t" horiz-adv-x="569" 
d="M521 1016v-79h-204l-2 -634q0 -84 13 -126q24 -76 94 -76q35 0 61.5 17.5t61.5 60.5l26 -24l-22 -33q-94 -141 -222 -141q-118 0 -160 115q-23 64 -23 174v667h-109q-10 6 -10 15q0 10 5 17q4 6 28 28q67 61 100 102q31 41 143 206q13 0 15.5 -2t2.5 -16v-271h202z" />
    <glyph glyph-name="u" unicode="u" 
d="M317 1020v-704q0 -75 19 -119q38 -84 136 -84q69 0 133 49q38 29 75 76v603q0 84 -29.5 111t-120.5 32v36h323v-774q0 -77 25.5 -104t102.5 -24v-30q-21 -6 -47.5 -14.5t-33.5 -10.5q-26 -7 -87 -30q-25 -11 -114 -48q-7 0 -7 17v177q-66 -87 -124 -132q-86 -66 -180 -66
q-87 0 -164 68q-78 67 -78 226v571q0 89 -34 117q-23 20 -94 27v30h299z" />
    <glyph glyph-name="v" unicode="v" 
d="M440 1024v-34q-56 -7 -75.5 -19t-19.5 -47q0 -26 20 -81l208 -568l180 503q36 104 36 137q0 43 -37 61q-20 9 -60 14v34h284v-34q-49 -4 -70 -36q-23 -32 -63 -145l-289 -792q-6 -18 -13 -29q-4 -7 -14 -7q-13 0 -32 44l-306 805q-38 100 -79 133q-26 20 -73 27v34h403z
" />
    <glyph glyph-name="w" unicode="w" horiz-adv-x="1479" 
d="M952 990q-66 -9 -92 -24.5t-26 -54.5q0 -36 24 -106l182 -523l178 478q14 35 27 84t13 72q0 39 -20.5 54t-69.5 22v32h254v-32q-24 -6 -41 -26q-17 -21 -45 -99l-320 -868q-7 -19 -16 -19q-13 8 -14 11l-226 615l-263 -613q-6 -13 -14 -13q-13 8 -14 11l-299 811
q-50 136 -65 157q-17 24 -63 31v34h370v-34q-52 -6 -73.5 -20.5t-21.5 -56.5q0 -30 41 -156q29 -87 61 -174l114 -313l180 425l2 13q0 42 -63 189q-20 49 -45 68.5t-72 24.5v34h417v-34z" />
    <glyph glyph-name="x" unicode="x" 
d="M474 1011v-31q-43 -1 -67 -12.5t-24 -42.5q0 -20 53 -118q2 -4 28 -49.5t43 -74.5q63 96 88 140q49 80 49 105q0 27 -19 38t-61 14v31h322v-31q-51 -4 -95 -30t-71 -69l-171 -272l264 -440q49 -81 84 -108.5t84 -29.5v-31h-413v31l29 2q23 2 38.5 15.5t15.5 32.5
q0 20 -38 93q-20 38 -54 95q-15 28 -50 83q-35 52 -57 90l-161 -276q-31 -53 -36 -65q-7 -15 -7 -28q0 -21 16 -28q12 -6 67 -14v-31h-296v31q56 13 82 32t67 85l233 373l-192 320q-58 96 -80 113.5t-96 25.5v31h425z" />
    <glyph glyph-name="y" unicode="y" 
d="M28 1056h422v-34q-47 -1 -74 -10q-46 -15 -46 -56q0 -22 23 -80l234 -571l188 576q4 11 10 41t6 40q0 52 -64 57l-31 3v34h275v-34q-39 -6 -60 -29.5t-37 -72.5l-315 -917q-83 -240 -157 -345q-75 -106 -190 -106q-62 0 -108 33.5t-46 95.5q0 44 29.5 72t74.5 28
q26 0 78 -21q51 -21 73 -21q34 0 78.5 70.5t73 150t28.5 113.5q0 20 -10 50l-320 761q-33 80 -58.5 106.5t-76.5 34.5v31z" />
    <glyph glyph-name="z" unicode="z" horiz-adv-x="909" 
d="M829 1011v-27l-555 -915h283q52 0 84 2.5t60 14t42 24.5t29.5 45.5t24 64t23.5 92.5l35 -7l-28 -305h-775v25l547 919h-268q-105 0 -139.5 -39t-47.5 -160h-35l4 266h716z" />
    <glyph glyph-name="braceleft" unicode="{" horiz-adv-x="983" 
d="M127 638q120 13 185 60q98 71 98 224l2 302q0 205 145 278q84 44 298 57v-50q-57 -7 -106 -25.5t-91 -51.5t-66 -87t-24 -125v-269q0 -88 -16.5 -144t-60.5 -95t-104.5 -62t-164.5 -46l-35 -8v-5q198 -17 288.5 -99.5t92.5 -226.5l3 -310q2 -137 101 -205q57 -38 183 -66
v-49q-443 0 -443 331l-2 339q0 127 -104 192q-57 37 -179 61v80z" />
    <glyph glyph-name="bar" unicode="|" horiz-adv-x="410" 
d="M274 1538v-1538h-139v1538h139z" />
    <glyph glyph-name="braceright" unicode="}" horiz-adv-x="983" 
d="M855 558q-125 -26 -181 -62q-101 -65 -101 -191l-2 -339q0 -331 -444 -331v49q126 28 183 66q102 69 102 205l2 310q0 148 95.5 228t286.5 98v5q-215 47 -281 95q-101 75 -101 260v269q0 156 -119 233q-66 42 -168 56v50q126 0 213.5 -23t137.5 -68.5t71.5 -104.5
t21.5 -139l2 -302q0 -160 105 -229q62 -42 177 -55v-80z" />
    <glyph glyph-name="asciitilde" unicode="~" horiz-adv-x="1108" 
d="M300 700q70 0 273 -90q201 -91 259 -91q74 0 125 76q29 44 69 154h52q-49 -217 -119 -297q-71 -81 -163 -81q-86 0 -283 93q-199 92 -244 92q-82 0 -139 -96q-29 -48 -55 -133h-47q34 157 75 234q73 139 197 139z" />
    <glyph glyph-name="uni00A0" unicode="&#xa0;" horiz-adv-x="512" 
 />
    <glyph glyph-name="exclamdown" unicode="&#xa1;" horiz-adv-x="682" 
d="M191 -281q0 44 5 84l93 863h26l19 -243q11 -139 47 -419q29 -229 29 -281q0 -64 -16 -106q-29 -77 -98 -77q-66 0 -92 74q-13 38 -13 105zM410 971q0 -54 -33 -89.5t-79 -35.5t-78.5 35.5t-32.5 86.5q0 50 32.5 83.5t78.5 33.5q47 0 79.5 -34t32.5 -80z" />
    <glyph glyph-name="sterling" unicode="&#xa3;" 
d="M289 179q-25 22 -68 29q-20 4 -50 4q-42 0 -68 -22t-26 -58q0 -24 10 -44q21 -42 73 -42q63 0 100 55q25 35 29 78zM22 132q0 63 50.5 112t140.5 49q33 0 95 -11q0 5 0.5 12t1 11t0.5 6v17q0 67 -10 168q0 2 -10 87t-18 156h-225v102h216q-10 104 -10 192q0 136 46 246
t137.5 177.5t213.5 67.5q106 0 186.5 -58.5t80.5 -151.5q0 -46 -26 -81.5t-69 -35.5q-29 0 -54 17q-43 32 -38 107l2 36q3 41 -26 73t-90 32q-122 0 -166 -138q-24 -72 -24 -195q0 -106 21 -288h256v-102h-248q0 -41 1 -57t1 -42q0 -93 -13.5 -201t-36.5 -187
q49 -26 114 -45q102 -33 186 -33q73 0 124.5 21.5t106.5 79.5l33 34q8 8 22 13l12 -10q-5 -48 -32 -103.5t-70.5 -106.5t-110.5 -84.5t-141 -33.5q-77 0 -188 69q-43 26 -98 71q-62 -78 -95 -106q-49 -38 -110 -38q-54 0 -96 40t-42 112z" />
    <glyph glyph-name="section" unicode="&#xa7;" 
d="M622 362q57 0 100 41.5t43 117.5q0 61 -67.5 152t-158 158t-150.5 67q-58 0 -99 -44.5t-41 -108.5q0 -55 28 -106.5t110 -128.5q87 -86 135 -117t100 -31zM392 947q17 0 32 -3q-113 101 -156 174.5t-43 167.5q0 110 85.5 191t205.5 81q103 0 180 -65t77 -155
q0 -49 -28 -85.5t-79 -36.5q-41 0 -68 29.5t-27 68.5q0 42 36 81q35 40 35 46q0 29 -43 49.5t-94 20.5q-74 0 -120 -42t-46 -121q0 -67 51 -133q29 -39 110 -111l161 -146q82 -72 129 -139q81 -117 81 -227q0 -133 -73.5 -210.5t-195.5 -65.5q96 -95 133 -153
q56 -88 56 -185q0 -121 -83.5 -200t-213.5 -79q-114 0 -197.5 64.5t-83.5 156.5q0 55 28.5 92.5t81.5 37.5q42 0 70 -31t28 -75q0 -42 -33 -73l-21 -21q-15 -15 -15 -28q0 -33 48 -55.5t100 -22.5q50 0 94 24q80 44 80 150q0 52 -21 93.5t-63 83.5t-138 122l-109 91
q-71 60 -122 135q-75 112 -75 229q0 122 75 198.5t171 76.5z" />
    <glyph glyph-name="dieresis" unicode="&#xa8;" horiz-adv-x="682" 
d="M592 1196q0 -46 -29.5 -79t-72.5 -33q-42 0 -72 33t-30 79q0 47 30 80t72 33q43 0 72.5 -33t29.5 -80zM-19 1196q0 47 29.5 80t71.5 33q43 0 72.5 -33t29.5 -80q0 -46 -29.5 -79t-72.5 -33q-42 0 -71.5 33t-29.5 79z" />
    <glyph glyph-name="copyright" unicode="&#xa9;" horiz-adv-x="1556" 
d="M142 750q0 -286 184 -488t444 -202t444 202t184 488q0 287 -184 489t-444 202t-444 -202t-184 -489zM66 750q0 321 206 548t498 227t498 -227t206 -548q0 -320 -206 -547t-498 -227t-498 227t-206 547zM348 771q0 213 115.5 350.5t291.5 137.5q94 0 174 -50l33 -21
q24 -13 35 -13q22 0 31 16q8 17 17 60h42l8 -379h-48q-32 168 -104.5 251.5t-177.5 83.5q-111 0 -179 -112t-68 -330q0 -62 9 -119.5t29.5 -111.5t50.5 -93.5t77 -63.5t105 -24q107 0 187 78q46 44 93 131l42 -26q-48 -97 -105 -152q-103 -103 -248 -103
q-173 0 -291.5 138.5t-118.5 351.5z" />
    <glyph glyph-name="guillemotleft" unicode="&#xab;" 
d="M519 73q-11 0 -24 18q-26 30 -71 75l-223 225l-95 89l-12 10l-7 8l45 49q1 1 57 55q86 84 113 111q93 93 149 156q46 50 49 53q14 14 21 14q21 0 21 -24q0 -32 -69 -135q-47 -69 -196 -274q263 -364 263 -405q0 -25 -21 -25zM910 73q-10 0 -24 18q-26 30 -71 75l-223 225
l-95 89l-12 10l-7 8q42 46 102 104q21 20 118 114q86 86 144 153q46 50 49 53q14 14 21 14q21 0 21 -24q0 -30 -68 -133q-39 -59 -197 -276q263 -364 263 -405q0 -25 -21 -25z" />
    <glyph glyph-name="registered" unicode="&#xae;" horiz-adv-x="1556" 
d="M372 357q86 0 112.5 12.5t26.5 62.5v657q0 46 -28.5 61t-110.5 15v52h403q155 0 249 -62t94 -170q0 -90 -75.5 -150t-203.5 -75v-7q149 -52 193 -224q42 -171 71 -171q36 0 53 44q10 26 19 118h50q-8 -100 -30 -146q-42 -86 -144 -86q-97 0 -130 70q-20 42 -28 173
q-8 134 -54.5 173t-189.5 35v-307q0 -52 39 -67q23 -10 101 -8v-53h-417v53zM142 750q0 -286 184 -488t444 -202t444 202t184 488q0 287 -184 489t-444 202t-444 -202t-184 -489zM66 750q0 321 206 548t498 227t498 -227t206 -548q0 -320 -206 -547t-498 -227t-498 227
t-206 547zM649 792q162 0 215 24q86 39 86 171q0 178 -190 178q-55 0 -83 -16.5t-28 -59.5v-297z" />
    <glyph glyph-name="macron" unicode="&#xaf;" horiz-adv-x="682" 
d="M-34 1241h640v-120h-640v120z" />
    <glyph glyph-name="degree" unicode="&#xb0;" horiz-adv-x="819" 
d="M87 1112q0 133 85.5 226.5t206.5 93.5t206 -93.5t85 -226.5t-85 -227t-206 -94t-206.5 94t-85.5 227zM187 1112q0 -87 56.5 -149t135.5 -62q80 0 136 62t56 149q0 88 -56 149.5t-136 61.5q-79 0 -135.5 -62t-56.5 -149z" />
    <glyph glyph-name="uni00B2" unicode="&#xb2;" horiz-adv-x="614" 
d="M9 551q257 274 334 379q76 104 76 219q0 88 -54.5 145t-124.5 57q-82 0 -133 -60q-29 -32 -65 -118l-35 9q23 128 100 202.5t181 74.5q103 0 174 -72.5t71 -175.5q0 -108 -54.5 -203.5t-208.5 -245.5l-121 -130q51 0 93 -1t93 -1h60.5t45 1.5t35.5 2.5t24.5 7.5t21 11
t15 17t17 23t17.5 31.5l23 -11l-66 -185h-519v23z" />
    <glyph glyph-name="uni00B3" unicode="&#xb3;" horiz-adv-x="614" 
d="M70 648q27 0 94 -34q68 -35 110 -35q78 0 123.5 62t45.5 134q0 137 -108 186q-56 27 -139 27h-28v26q129 28 184 106q35 49 35 105q0 95 -69 131q-34 19 -81 19q-74 0 -128 -56q-29 -31 -57 -88l-26 4q17 89 86.5 157t173.5 68q99 0 153 -55t54 -130q0 -115 -119 -190
q78 -30 121 -93.5t43 -154.5q0 -138 -96.5 -229t-269.5 -91q-65 0 -107.5 23.5t-42.5 57.5q0 22 13.5 36t34.5 14z" />
    <glyph glyph-name="acute" unicode="&#xb4;" horiz-adv-x="682" 
d="M593 1363q0 -30 -15 -51t-48 -45l-315 -219h-83l301 333q48 55 91 55q27 0 48 -20.5t21 -52.5z" />
    <glyph glyph-name="paragraph" unicode="&#xb6;" horiz-adv-x="928" 
d="M884 1479q-58 -5 -83 -29q-41 -43 -55 -169q-12 -103 -12 -303v-613q0 -260 -62 -404q-114 -260 -435 -260q-98 0 -155 37t-57 100q0 44 26.5 69.5t64.5 25.5q37 0 64.5 -27t27.5 -70q0 -31 -21 -65q112 -3 155 127q23 72 34 254q3 46 5 135v375q-189 0 -306.5 124
t-117.5 308q0 112 53 213t152 153q72 36 152.5 48t249.5 12h320v-41zM443 1197q0 -75 -1 -96q-2 -44 -2 -97v-568q0 -355 -22 -480q-23 -127 -122 -192l2 -14q207 46 272 246q39 123 39 440v420q0 224 7 373q11 193 71 250h-164q-6 0 -30 -32q-25 -33 -36 -81
q-14 -51 -14 -169z" />
    <glyph glyph-name="cedilla" unicode="&#xb8;" horiz-adv-x="682" 
d="M229 44h72l-53 -149q45 9 62 9q75 0 121.5 -44t46.5 -114q0 -85 -65.5 -137.5t-192.5 -52.5q-21 0 -58 5q-59 9 -110 31l28 71l31 -10q37 -16 95 -16q44 0 70 12q49 21 49 82q0 43 -24 65t-65 22q-39 0 -78 -11l-14 13z" />
    <glyph glyph-name="uni00B9" unicode="&#xb9;" horiz-adv-x="614" 
d="M144 556q81 9 103.5 25.5t22.5 76.5v620q0 35 -8.5 50t-34.5 15q-17 0 -27 -3q-16 -4 -65 -25v18l26 12l213 113q1 1 4 1q2 0 3 -1l2 -4v-10v-786q0 -58 25.5 -75.5t100.5 -26.5v-18h-365v18z" />
    <glyph glyph-name="guillemotright" unicode="&#xbb;" 
d="M92 98q0 21 86 152t177 253q-131 177 -183 255q-82 121 -82 154q0 24 21 24q6 0 23 -17t47 -50q79 -91 222 -228q142 -138 142 -143l-7 -8l-12 -10l-95 -89l-223 -225q-24 -24 -44 -47q-21 -23 -39 -41l-12 -5q-21 0 -21 25zM483 98q0 24 87.5 155t175.5 250
q-158 217 -197 276q-68 103 -68 133q0 11 6 17.5t15 6.5q6 0 22 -14q34 -38 48 -53q89 -101 227 -233q137 -132 137 -138l-7 -8l-12 -10l-95 -89l-223 -225q-24 -24 -44 -47q-21 -23 -39 -41l-12 -5q-21 0 -21 25z" />
    <glyph glyph-name="questiondown" unicode="&#xbf;" horiz-adv-x="909" 
d="M298 965q0 51 33 85.5t79 34.5t78.5 -35t32.5 -85q0 -49 -32.5 -84.5t-77.5 -35.5t-79 35t-34 85zM394 -457q-85 0 -164 41t-133 124t-54 188q0 146 156 363q169 236 194 436h36q0 -40 -12.5 -118.5t-25.5 -127.5q-26 -83 -75 -206q-6 -15 -6 -13q-30 -78 -48 -136
q-30 -104 -30 -181q0 -84 24 -151.5t76.5 -109.5t126.5 -42q76 0 134 45.5t58 90.5q0 29 -40 79q-41 52 -41 91q0 38 23.5 65.5t58.5 27.5q47 0 76.5 -42.5t29.5 -102.5q0 -59 -22 -114.5t-65 -102.5t-115 -75.5t-162 -28.5z" />
    <glyph glyph-name="Agrave" unicode="&#xc0;" horiz-adv-x="1479" 
d="M30 0v41q78 10 119 66q38 54 135 304l427 1106h40l510 -1277q35 -88 58.5 -126t48 -51.5t77.5 -21.5v-41h-521v41q91 8 116 21q26 14 26 62q0 47 -38 147l-85 216h-536q-83 -229 -95 -270q-16 -48 -16 -77q0 -58 42 -80q24 -13 98 -19v-41h-406zM893 1489h-83l-315 219
q-33 24 -47.5 45.5t-14.5 50.5q0 30 20.5 51t48.5 21q40 0 90 -54zM914 579l-237 620l-234 -620h471z" />
    <glyph glyph-name="Aacute" unicode="&#xc1;" horiz-adv-x="1479" 
d="M30 0v41q78 10 119 66q38 54 135 304l427 1106h40l510 -1277q35 -88 58.5 -126t48 -51.5t77.5 -21.5v-41h-521v41q91 8 116 21q26 14 26 62q0 47 -38 147l-85 216h-536q-83 -229 -95 -270q-16 -48 -16 -77q0 -58 42 -80q24 -13 98 -19v-41h-406zM1047 1804q0 -30 -15 -51
t-48 -45l-315 -219h-83l301 333q48 55 91 55q27 0 48 -20.5t21 -52.5zM914 579l-237 620l-234 -620h471z" />
    <glyph glyph-name="Acircumflex" unicode="&#xc2;" horiz-adv-x="1479" 
d="M30 0v41q78 10 119 66q38 54 135 304l427 1106h40l510 -1277q35 -88 58.5 -126t48 -51.5t77.5 -21.5v-41h-521v41q91 8 116 21q26 14 26 62q0 47 -38 147l-85 216h-536q-83 -229 -95 -270q-16 -48 -16 -77q0 -58 42 -80q24 -13 98 -19v-41h-406zM411 1489l256 375h128
l256 -375h-71l-249 232l-249 -232h-71zM914 579l-237 620l-234 -620h471z" />
    <glyph glyph-name="Atilde" unicode="&#xc3;" horiz-adv-x="1479" 
d="M30 0v41q78 10 119 66q38 54 135 304l427 1106h40l510 -1277q35 -88 58.5 -126t48 -51.5t77.5 -21.5v-41h-521v41q91 8 116 21q26 14 26 62q0 47 -38 147l-85 216h-536q-83 -229 -95 -270q-16 -48 -16 -77q0 -58 42 -80q24 -13 98 -19v-41h-406zM795 1705q62 -33 98 -33
q51 0 84 41q22 26 34 71h59q-4 -60 -39 -123q-61 -115 -180 -115q-65 0 -160 52l-47 26q-44 23 -78 23q-51 0 -81 -37q-16 -20 -31 -64h-62q25 113 83.5 170t133.5 57q59 0 137 -42zM914 579l-237 620l-234 -620h471z" />
    <glyph glyph-name="Adieresis" unicode="&#xc4;" horiz-adv-x="1479" 
d="M30 0v41q78 10 119 66q38 54 135 304l427 1106h40l510 -1277q35 -88 58.5 -126t48 -51.5t77.5 -21.5v-41h-521v41q91 8 116 21q26 14 26 62q0 47 -38 147l-85 216h-536q-83 -229 -95 -270q-16 -48 -16 -77q0 -58 42 -80q24 -13 98 -19v-41h-406zM1037 1637
q0 -46 -29.5 -79t-72.5 -33q-42 0 -72 33t-30 79q0 47 30 80t72 33q43 0 72.5 -33t29.5 -80zM426 1637q0 47 29.5 80t71.5 33q43 0 72.5 -33t29.5 -80q0 -46 -29.5 -79t-72.5 -33q-42 0 -71.5 33t-29.5 79zM914 579l-237 620l-234 -620h471z" />
    <glyph glyph-name="Aring" unicode="&#xc5;" horiz-adv-x="1479" 
d="M30 0v41q78 10 119 66q38 54 135 304l427 1106h40l510 -1277q35 -88 58.5 -126t48 -51.5t77.5 -21.5v-41h-521v41q91 8 116 21q26 14 26 62q0 47 -38 147l-85 216h-536q-83 -229 -95 -270q-16 -48 -16 -77q0 -58 42 -80q24 -13 98 -19v-41h-406zM605 1658q0 -59 37 -99
t89 -40t88.5 41t36.5 98t-36.5 97t-88.5 40t-89 -40t-37 -97zM522 1658q0 94 61.5 161.5t147.5 67.5t147 -67.5t61 -161.5q0 -96 -61 -163t-147 -67q-87 0 -148 67t-61 163zM914 579l-237 620l-234 -620h471z" />
    <glyph glyph-name="Ccedilla" unicode="&#xc7;" horiz-adv-x="1366" 
d="M758 1561q111 0 228 -36t131 -36q31 0 56.5 18.5t34.5 53.5h43l19 -506h-47q-40 150 -107 243q-126 174 -339 174q-218 0 -353 -189.5t-135 -512.5q0 -297 142.5 -479t364.5 -182q159 0 293 84q78 47 169 143l38 -42q-68 -95 -169 -166q-172 -121 -373 -121q-28 0 -70 2
l-38 -114q45 9 62 9q75 0 121.5 -44t46.5 -114q0 -85 -65.5 -137.5t-192.5 -52.5q-21 0 -58 5q-59 9 -110 31l28 71l31 -10q37 -16 95 -16q44 0 70 12q49 21 49 82q0 43 -24 65t-65 22q-39 0 -78 -11l-14 13l74 197q-261 31 -413 234t-152 524q0 329 189 552
q200 234 518 234z" />
    <glyph glyph-name="Egrave" unicode="&#xc8;" horiz-adv-x="1251" 
d="M23 41q42 5 66 9t47 13.5t34 22t19.5 35t11 51t2.5 72.5v1002q0 120 -33 157t-147 46v41h1088l7 -323h-52q-9 54 -18 87.5t-25 62.5t-35 44t-53 26t-75 14.5t-104 3.5h-278q-43 0 -54.5 -14.5t-11.5 -61.5v-503h315q45 0 75.5 3.5t54 14.5t37.5 24.5t25.5 41t18 56
t14.5 77.5h48v-522h-48q-13 73 -24 109t-35.5 63.5t-61.5 35.5t-104 8h-315v-558q0 -67 39 -79q37 -12 230 -12q90 0 148 6t111.5 23t90.5 50t70 84.5t65 129.5h57l-93 -381h-1107v41zM789 1465h-83l-315 219q-33 24 -47.5 45.5t-14.5 50.5q0 30 20.5 51t48.5 21
q40 0 90 -54z" />
    <glyph glyph-name="Eacute" unicode="&#xc9;" horiz-adv-x="1251" 
d="M23 41q42 5 66 9t47 13.5t34 22t19.5 35t11 51t2.5 72.5v1002q0 120 -33 157t-147 46v41h1088l7 -323h-52q-9 54 -18 87.5t-25 62.5t-35 44t-53 26t-75 14.5t-104 3.5h-278q-43 0 -54.5 -14.5t-11.5 -61.5v-503h315q45 0 75.5 3.5t54 14.5t37.5 24.5t25.5 41t18 56
t14.5 77.5h48v-522h-48q-13 73 -24 109t-35.5 63.5t-61.5 35.5t-104 8h-315v-558q0 -67 39 -79q37 -12 230 -12q90 0 148 6t111.5 23t90.5 50t70 84.5t65 129.5h57l-93 -381h-1107v41zM943 1780q0 -30 -15 -51t-48 -45l-315 -219h-83l301 333q48 55 91 55q27 0 48 -20.5
t21 -52.5z" />
    <glyph glyph-name="Ecircumflex" unicode="&#xca;" horiz-adv-x="1251" 
d="M23 41q42 5 66 9t47 13.5t34 22t19.5 35t11 51t2.5 72.5v1002q0 120 -33 157t-147 46v41h1088l7 -323h-52q-9 54 -18 87.5t-25 62.5t-35 44t-53 26t-75 14.5t-104 3.5h-278q-43 0 -54.5 -14.5t-11.5 -61.5v-503h315q45 0 75.5 3.5t54 14.5t37.5 24.5t25.5 41t18 56
t14.5 77.5h48v-522h-48q-13 73 -24 109t-35.5 63.5t-61.5 35.5t-104 8h-315v-558q0 -67 39 -79q37 -12 230 -12q90 0 148 6t111.5 23t90.5 50t70 84.5t65 129.5h57l-93 -381h-1107v41zM307 1465l256 375h128l256 -375h-71l-249 232l-249 -232h-71z" />
    <glyph glyph-name="Edieresis" unicode="&#xcb;" horiz-adv-x="1251" 
d="M23 41q42 5 66 9t47 13.5t34 22t19.5 35t11 51t2.5 72.5v1002q0 120 -33 157t-147 46v41h1088l7 -323h-52q-9 54 -18 87.5t-25 62.5t-35 44t-53 26t-75 14.5t-104 3.5h-278q-43 0 -54.5 -14.5t-11.5 -61.5v-503h315q45 0 75.5 3.5t54 14.5t37.5 24.5t25.5 41t18 56
t14.5 77.5h48v-522h-48q-13 73 -24 109t-35.5 63.5t-61.5 35.5t-104 8h-315v-558q0 -67 39 -79q37 -12 230 -12q90 0 148 6t111.5 23t90.5 50t70 84.5t65 129.5h57l-93 -381h-1107v41zM933 1613q0 -46 -29.5 -79t-72.5 -33q-42 0 -72 33t-30 79q0 47 30 80t72 33
q43 0 72.5 -33t29.5 -80zM322 1613q0 47 29.5 80t71.5 33q43 0 72.5 -33t29.5 -80q0 -46 -29.5 -79t-72.5 -33q-42 0 -71.5 33t-29.5 79z" />
    <glyph glyph-name="Igrave" unicode="&#xcc;" horiz-adv-x="682" 
d="M33 41q70 5 103 12t58 29t31.5 58t6.5 104v1002q0 65 -7 101t-30.5 59t-59 31t-102.5 12v41h606v-41q-67 -4 -102.5 -12t-59 -31t-30.5 -59t-7 -101v-1002q0 -68 6.5 -104t31.5 -58t58 -29t103 -12v-41h-606v41zM498 1465h-83l-315 219q-33 24 -47.5 45.5t-14.5 50.5
q0 30 20.5 51t48.5 21q40 0 90 -54z" />
    <glyph glyph-name="Iacute" unicode="&#xcd;" horiz-adv-x="682" 
d="M33 41q70 5 103 12t58 29t31.5 58t6.5 104v1002q0 65 -7 101t-30.5 59t-59 31t-102.5 12v41h606v-41q-67 -4 -102.5 -12t-59 -31t-30.5 -59t-7 -101v-1002q0 -68 6.5 -104t31.5 -58t58 -29t103 -12v-41h-606v41zM652 1780q0 -30 -15 -51t-48 -45l-315 -219h-83l301 333
q48 55 91 55q27 0 48 -20.5t21 -52.5z" />
    <glyph glyph-name="Icircumflex" unicode="&#xce;" horiz-adv-x="682" 
d="M33 41q70 5 103 12t58 29t31.5 58t6.5 104v1002q0 65 -7 101t-30.5 59t-59 31t-102.5 12v41h606v-41q-67 -4 -102.5 -12t-59 -31t-30.5 -59t-7 -101v-1002q0 -68 6.5 -104t31.5 -58t58 -29t103 -12v-41h-606v41zM16 1465l256 375h128l256 -375h-71l-249 232l-249 -232
h-71z" />
    <glyph glyph-name="Idieresis" unicode="&#xcf;" horiz-adv-x="682" 
d="M33 41q70 5 103 12t58 29t31.5 58t6.5 104v1002q0 65 -7 101t-30.5 59t-59 31t-102.5 12v41h606v-41q-67 -4 -102.5 -12t-59 -31t-30.5 -59t-7 -101v-1002q0 -68 6.5 -104t31.5 -58t58 -29t103 -12v-41h-606v41zM642 1613q0 -46 -29.5 -79t-72.5 -33q-42 0 -72 33t-30 79
q0 47 30 80t72 33q43 0 72.5 -33t29.5 -80zM31 1613q0 47 29.5 80t71.5 33q43 0 72.5 -33t29.5 -80q0 -46 -29.5 -79t-72.5 -33q-42 0 -71.5 33t-29.5 79z" />
    <glyph glyph-name="Ntilde" unicode="&#xd1;" horiz-adv-x="1479" 
d="M23 43q45 5 73.5 11.5t53 20t37 31.5t21.5 51t11.5 73.5t2.5 102.5v994l-28 36q-43 56 -74 71t-97 17v42h351l789 -1085v754q0 186 -50 242q-33 36 -146 47v42h481v-42q-50 -5 -80.5 -14t-55 -26.5t-36 -50t-17.5 -79t-6 -119.5v-1186h-35l-906 1235v-878q0 -185 49 -240
q31 -36 143 -50v-41h-481v41zM805 1681q62 -33 98 -33q51 0 84 41q22 26 34 71h59q-4 -60 -39 -123q-61 -115 -180 -115q-65 0 -160 52l-47 26q-44 23 -78 23q-51 0 -81 -37q-16 -20 -31 -64h-62q25 113 83.5 170t133.5 57q59 0 137 -42z" />
    <glyph glyph-name="Otilde" unicode="&#xd5;" horiz-adv-x="1479" 
d="M293 748q0 -174 33.5 -308.5t93.5 -218.5t139 -126.5t173 -42.5q93 0 170.5 41t138.5 123.5t95 218.5t34 313q0 178 -34.5 314.5t-96 218.5t-139 122.5t-168.5 40.5q-194 0 -316.5 -177.5t-122.5 -518.5zM61 748q0 360 206 578q189 199 465 199q277 0 466 -200
q205 -217 205 -577q0 -366 -212 -583q-191 -194 -459 -194q-288 0 -478 214q-193 218 -193 563zM796 1710q62 -33 98 -33q51 0 84 41q22 26 34 71h59q-5 -60 -39 -123q-61 -115 -180 -115q-65 0 -160 52l-47 26q-44 23 -78 23q-51 0 -81 -37q-16 -20 -31 -64h-62
q25 113 83.5 170t133.5 57q59 0 137 -42z" />
    <glyph glyph-name="Odieresis" unicode="&#xd6;" horiz-adv-x="1479" 
d="M293 748q0 -174 33.5 -308.5t93.5 -218.5t139 -126.5t173 -42.5q93 0 170.5 41t138.5 123.5t95 218.5t34 313q0 178 -34.5 314.5t-96 218.5t-139 122.5t-168.5 40.5q-194 0 -316.5 -177.5t-122.5 -518.5zM61 748q0 360 206 578q189 199 465 199q277 0 466 -200
q205 -217 205 -577q0 -366 -212 -583q-191 -194 -459 -194q-288 0 -478 214q-193 218 -193 563zM1038 1642q0 -46 -29.5 -79t-72.5 -33q-42 0 -72 33t-30 79q0 47 30 80t72 33q43 0 72.5 -33t29.5 -80zM427 1642q0 47 29.5 80t71.5 33q43 0 72.5 -33t29.5 -80
q0 -46 -29.5 -79t-72.5 -33q-42 0 -71.5 33t-29.5 79z" />
    <glyph glyph-name="Udieresis" unicode="&#xdc;" horiz-adv-x="1479" 
d="M609 1493v-41q-63 -5 -96.5 -13.5t-56 -31t-29 -58.5t-6.5 -100v-720q0 -176 44 -276q82 -181 311 -181q251 0 337 185q48 104 48 319v586q0 93 -8 146.5t-33 84t-57 41.5t-94 18v41h474v-41q-85 -11 -122.5 -33.5t-53.5 -79t-16 -177.5v-586q0 -232 -65 -364
q-120 -241 -456 -241q-332 0 -452 238q-65 128 -65 336v704q0 64 -6.5 99.5t-28.5 58.5t-55 31.5t-95 13.5v41h581zM1047 1613q0 -46 -29.5 -79t-72.5 -33q-42 0 -72 33t-30 79q0 47 30 80t72 33q43 0 72.5 -33t29.5 -80zM436 1613q0 47 29.5 80t71.5 33q43 0 72.5 -33
t29.5 -80q0 -46 -29.5 -79t-72.5 -33q-42 0 -71.5 33t-29.5 79z" />
    <glyph glyph-name="germandbls" unicode="&#xdf;" 
d="M23 35q71 8 93 28q35 32 35 129v834q0 197 45 310q82 207 311 207q157 0 256 -89.5t99 -244.5q0 -167 -125 -272q-66 -56 -152 -82q162 -45 240 -111q134 -113 134 -326q0 -183 -107 -311.5t-257 -128.5q-87 0 -144.5 45t-57.5 124q0 46 25.5 76.5t64.5 30.5
q38 0 61.5 -24.5t26.5 -66.5l4 -50q1 -31 14 -48q10 -19 48 -19q82 0 112 129q16 67 16 193q0 433 -293 439q-43 2 -43 38q0 17 10 24t36 10q83 11 128 48q83 71 83 238q0 97 -27 177q-48 141 -164 141q-173 0 -173 -282v-1199h-299v33z" />
    <glyph glyph-name="agrave" unicode="&#xe0;" horiz-adv-x="909" 
d="M587 611q-114 -42 -190 -93q-144 -98 -144 -222q0 -100 60 -147q38 -31 87 -31q70 0 128.5 42t58.5 102v349zM75 220q0 161 145 267q92 66 367 179v93q0 112 -20 157q-34 73 -141 73q-51 0 -97 -28q-46 -30 -46 -82q0 -9 5 -44t5 -40q0 -62 -37 -86q-21 -15 -50 -15
q-43 0 -68 31.5t-25 73.5q0 40 22.5 82t63.5 79t107.5 60.5t146.5 23.5q194 0 263 -138q37 -75 37 -221v-442q0 -61 8 -88q13 -42 54 -42q23 0 38 7.5t52 37.5v-58q-31 -41 -69 -70q-56 -42 -114 -42q-64 0 -96.5 45.5t-35.5 118.5q-78 -73 -130 -108q-92 -59 -173 -59
q-88 0 -150 67t-62 168zM618 1058h-83l-315 219q-33 24 -47.5 45.5t-14.5 50.5q0 30 20.5 51t48.5 21q40 0 90 -54z" />
    <glyph glyph-name="aacute" unicode="&#xe1;" horiz-adv-x="909" 
d="M587 611q-114 -42 -190 -93q-144 -98 -144 -222q0 -100 60 -147q38 -31 87 -31q70 0 128.5 42t58.5 102v349zM75 220q0 161 145 267q92 66 367 179v93q0 112 -20 157q-34 73 -141 73q-51 0 -97 -28q-46 -30 -46 -82q0 -9 5 -44t5 -40q0 -62 -37 -86q-21 -15 -50 -15
q-43 0 -68 31.5t-25 73.5q0 40 22.5 82t63.5 79t107.5 60.5t146.5 23.5q194 0 263 -138q37 -75 37 -221v-442q0 -61 8 -88q13 -42 54 -42q23 0 38 7.5t52 37.5v-58q-31 -41 -69 -70q-56 -42 -114 -42q-64 0 -96.5 45.5t-35.5 118.5q-78 -73 -130 -108q-92 -59 -173 -59
q-88 0 -150 67t-62 168zM772 1373q0 -30 -15 -51t-48 -45l-315 -219h-83l301 333q48 55 91 55q27 0 48 -20.5t21 -52.5z" />
    <glyph glyph-name="acircumflex" unicode="&#xe2;" horiz-adv-x="909" 
d="M587 611q-114 -42 -190 -93q-144 -98 -144 -222q0 -100 60 -147q38 -31 87 -31q70 0 128.5 42t58.5 102v349zM75 220q0 161 145 267q92 66 367 179v93q0 112 -20 157q-34 73 -141 73q-51 0 -97 -28q-46 -30 -46 -82q0 -9 5 -44t5 -40q0 -62 -37 -86q-21 -15 -50 -15
q-43 0 -68 31.5t-25 73.5q0 40 22.5 82t63.5 79t107.5 60.5t146.5 23.5q194 0 263 -138q37 -75 37 -221v-442q0 -61 8 -88q13 -42 54 -42q23 0 38 7.5t52 37.5v-58q-31 -41 -69 -70q-56 -42 -114 -42q-64 0 -96.5 45.5t-35.5 118.5q-78 -73 -130 -108q-92 -59 -173 -59
q-88 0 -150 67t-62 168zM136 1058l256 375h128l256 -375h-71l-249 232l-249 -232h-71z" />
    <glyph glyph-name="atilde" unicode="&#xe3;" horiz-adv-x="909" 
d="M587 611q-114 -42 -190 -93q-144 -98 -144 -222q0 -100 60 -147q38 -31 87 -31q70 0 128.5 42t58.5 102v349zM75 220q0 161 145 267q92 66 367 179v93q0 112 -20 157q-34 73 -141 73q-51 0 -97 -28q-46 -30 -46 -82q0 -9 5 -44t5 -40q0 -62 -37 -86q-21 -15 -50 -15
q-43 0 -68 31.5t-25 73.5q0 40 22.5 82t63.5 79t107.5 60.5t146.5 23.5q194 0 263 -138q37 -75 37 -221v-442q0 -61 8 -88q13 -42 54 -42q23 0 38 7.5t52 37.5v-58q-31 -41 -69 -70q-56 -42 -114 -42q-64 0 -96.5 45.5t-35.5 118.5q-78 -73 -130 -108q-92 -59 -173 -59
q-88 0 -150 67t-62 168zM520 1274q62 -33 98 -33q51 0 84 41q22 26 34 71h59q-5 -60 -39 -123q-61 -115 -180 -115q-65 0 -160 52l-47 26q-44 23 -78 23q-51 0 -81 -37q-16 -20 -31 -64h-62q25 113 83.5 170t133.5 57q59 0 137 -42z" />
    <glyph glyph-name="adieresis" unicode="&#xe4;" horiz-adv-x="909" 
d="M587 611q-114 -42 -190 -93q-144 -98 -144 -222q0 -100 60 -147q38 -31 87 -31q70 0 128.5 42t58.5 102v349zM75 220q0 161 145 267q92 66 367 179v93q0 112 -20 157q-34 73 -141 73q-51 0 -97 -28q-46 -30 -46 -82q0 -9 5 -44t5 -40q0 -62 -37 -86q-21 -15 -50 -15
q-43 0 -68 31.5t-25 73.5q0 40 22.5 82t63.5 79t107.5 60.5t146.5 23.5q194 0 263 -138q37 -75 37 -221v-442q0 -61 8 -88q13 -42 54 -42q23 0 38 7.5t52 37.5v-58q-31 -41 -69 -70q-56 -42 -114 -42q-64 0 -96.5 45.5t-35.5 118.5q-78 -73 -130 -108q-92 -59 -173 -59
q-88 0 -150 67t-62 168zM762 1206q0 -46 -29.5 -79t-72.5 -33q-42 0 -72 33t-30 79q0 47 30 80t72 33q43 0 72.5 -33t29.5 -80zM151 1206q0 47 29.5 80t71.5 33q43 0 72.5 -33t29.5 -80q0 -46 -29.5 -79t-72.5 -33q-42 0 -71.5 33t-29.5 79z" />
    <glyph glyph-name="aring" unicode="&#xe5;" horiz-adv-x="909" 
d="M587 611q-114 -42 -190 -93q-144 -98 -144 -222q0 -100 60 -147q38 -31 87 -31q70 0 128.5 42t58.5 102v349zM75 220q0 161 145 267q92 66 367 179v93q0 112 -20 157q-34 73 -141 73q-51 0 -97 -28q-46 -30 -46 -82q0 -9 5 -44t5 -40q0 -62 -37 -86q-21 -15 -50 -15
q-43 0 -68 31.5t-25 73.5q0 40 22.5 82t63.5 79t107.5 60.5t146.5 23.5q194 0 263 -138q37 -75 37 -221v-442q0 -61 8 -88q13 -42 54 -42q23 0 38 7.5t52 37.5v-58q-31 -41 -69 -70q-56 -42 -114 -42q-64 0 -96.5 45.5t-35.5 118.5q-78 -73 -130 -108q-92 -59 -173 -59
q-88 0 -150 67t-62 168zM330 1298q0 -59 37 -99t89 -40t88.5 41t36.5 98t-36.5 97t-88.5 40t-89 -40t-37 -97zM247 1298q0 94 61.5 161.5t147.5 67.5t147 -67.5t61 -161.5q0 -96 -61 -163t-147 -67q-87 0 -148 67t-61 163z" />
    <glyph glyph-name="ccedilla" unicode="&#xe7;" horiz-adv-x="909" 
d="M509 1082q123 0 214.5 -70t91.5 -157q0 -40 -24.5 -69.5t-69.5 -29.5q-36 0 -62 26.5t-38 76.5l-12 53q-14 59 -45 83q-34 23 -87 23q-116 0 -193.5 -111t-77.5 -290q0 -112 38.5 -209t112.5 -159t169 -62q104 0 185 75q46 43 104 137l28 -19q-57 -133 -120 -209
q-121 -148 -259 -148l-46 -128q45 9 62 9q75 0 121.5 -44t46.5 -114q0 -85 -65.5 -137.5t-192.5 -52.5q-21 0 -58 5q-59 9 -110 31l28 71l31 -10q37 -16 95 -16q44 0 70 12q49 21 49 82q0 43 -24 65t-65 22q-39 0 -78 -11l-14 13l78 203q-150 21 -247.5 159t-97.5 344
q0 151 59 278t165.5 202.5t237.5 75.5z" />
    <glyph glyph-name="egrave" unicode="&#xe8;" horiz-adv-x="909" 
d="M469 1034q148 0 250.5 -110.5t102.5 -300.5h-635q9 -243 100.5 -366t229.5 -123q101 0 173.5 57.5t136.5 174.5l35 -13q-29 -97 -86.5 -180t-148.5 -140t-194 -57q-121 0 -212 73t-136 189t-45 254q0 147 53.5 270.5t152.5 197.5t223 74zM411 954q-114 0 -174 -111
q-33 -63 -46 -150h422q-10 109 -38 164q-49 97 -164 97zM618 1048h-83l-315 219q-33 24 -47.5 45.5t-14.5 50.5q0 30 20.5 51t48.5 21q40 0 90 -54z" />
    <glyph glyph-name="eacute" unicode="&#xe9;" horiz-adv-x="909" 
d="M469 1034q148 0 250.5 -110.5t102.5 -300.5h-635q9 -243 100.5 -366t229.5 -123q101 0 173.5 57.5t136.5 174.5l35 -13q-29 -97 -86.5 -180t-148.5 -140t-194 -57q-121 0 -212 73t-136 189t-45 254q0 147 53.5 270.5t152.5 197.5t223 74zM411 954q-114 0 -174 -111
q-33 -63 -46 -150h422q-10 109 -38 164q-49 97 -164 97zM772 1363q0 -30 -15 -51t-48 -45l-315 -219h-83l301 333q48 55 91 55q27 0 48 -20.5t21 -52.5z" />
    <glyph glyph-name="ecircumflex" unicode="&#xea;" horiz-adv-x="909" 
d="M469 1034q148 0 250.5 -110.5t102.5 -300.5h-635q9 -243 100.5 -366t229.5 -123q101 0 173.5 57.5t136.5 174.5l35 -13q-29 -97 -86.5 -180t-148.5 -140t-194 -57q-121 0 -212 73t-136 189t-45 254q0 147 53.5 270.5t152.5 197.5t223 74zM411 954q-114 0 -174 -111
q-33 -63 -46 -150h422q-10 109 -38 164q-49 97 -164 97zM136 1048l256 375h128l256 -375h-71l-249 232l-249 -232h-71z" />
    <glyph glyph-name="edieresis" unicode="&#xeb;" horiz-adv-x="909" 
d="M469 1034q148 0 250.5 -110.5t102.5 -300.5h-635q9 -243 100.5 -366t229.5 -123q101 0 173.5 57.5t136.5 174.5l35 -13q-29 -97 -86.5 -180t-148.5 -140t-194 -57q-121 0 -212 73t-136 189t-45 254q0 147 53.5 270.5t152.5 197.5t223 74zM411 954q-114 0 -174 -111
q-33 -63 -46 -150h422q-10 109 -38 164q-49 97 -164 97zM762 1196q0 -46 -29.5 -79t-72.5 -33q-42 0 -72 33t-30 79q0 47 30 80t72 33q43 0 72.5 -33t29.5 -80zM151 1196q0 47 29.5 80t71.5 33q43 0 72.5 -33t29.5 -80q0 -46 -29.5 -79t-72.5 -33q-42 0 -71.5 33t-29.5 79z
" />
    <glyph glyph-name="igrave" unicode="&#xec;" horiz-adv-x="569" 
d="M448 1048h-83l-315 219q-33 24 -47.5 45.5t-14.5 50.5q0 30 20.5 51t48.5 21q40 0 90 -54z" />
    <glyph glyph-name="iacute" unicode="&#xed;" horiz-adv-x="569" 
d="M602 1363q0 -30 -15 -51t-48 -45l-315 -219h-83l301 333q48 55 91 55q27 0 48 -20.5t21 -52.5z" />
    <glyph glyph-name="icircumflex" unicode="&#xee;" horiz-adv-x="569" 
d="M-34 1048l256 375h128l256 -375h-71l-249 232l-249 -232h-71z" />
    <glyph glyph-name="idieresis" unicode="&#xef;" horiz-adv-x="569" 
d="M592 1196q0 -46 -29.5 -79t-72.5 -33q-42 0 -72 33t-30 79q0 47 30 80t72 33q43 0 72.5 -33t29.5 -80zM-19 1196q0 47 29.5 80t71.5 33q43 0 72.5 -33t29.5 -80q0 -46 -29.5 -79t-72.5 -33q-42 0 -71.5 33t-29.5 79z" />
    <glyph glyph-name="ntilde" unicode="&#xf1;" 
d="M37 31q76 10 102 41t26 128v558q0 70 -12 99q-19 42 -78 42q-12 0 -18 -1q-2 0 -10.5 -1.5t-13.5 -2.5v39q81 27 194 68l94 34q10 0 10 -21v-162q94 97 144 130q78 54 162 54q69 0 124 -43q108 -83 108 -298v-514q0 -79 29 -114t97 -36v-31h-427v31q52 8 78 23.5t39.5 54
t13.5 112.5v470q0 219 -150 219q-58 0 -120 -44q-33 -24 -88 -84v-616q0 -76 30.5 -104.5t102.5 -30.5v-31h-437v31zM577 1268q62 -33 98 -33q51 0 84 41q22 26 34 71h59q-4 -60 -39 -123q-61 -115 -180 -115q-65 0 -160 52l-47 26q-44 23 -78 23q-51 0 -81 -37
q-16 -20 -31 -64h-62q25 113 83.5 170t133.5 57q59 0 137 -42z" />
    <glyph glyph-name="ograve" unicode="&#xf2;" 
d="M52 513q0 145 57 264t161 188.5t234 69.5q200 0 329 -144.5t129 -379.5q0 -146 -56.5 -269.5t-161 -198t-234.5 -74.5q-193 0 -325.5 155.5t-132.5 388.5zM476 969q-78 0 -137 -57q-100 -100 -100 -346q0 -134 35 -254t106.5 -200t162.5 -80q110 0 171.5 111.5
t61.5 298.5q0 97 -20 189.5t-56.5 168.5t-95 122.5t-128.5 46.5zM675 1048h-83l-315 219q-33 24 -47.5 45.5t-14.5 50.5q0 30 20.5 51t48.5 21q40 0 90 -54z" />
    <glyph glyph-name="oacute" unicode="&#xf3;" 
d="M52 513q0 145 57 264t161 188.5t234 69.5q200 0 329 -144.5t129 -379.5q0 -146 -56.5 -269.5t-161 -198t-234.5 -74.5q-193 0 -325.5 155.5t-132.5 388.5zM476 969q-78 0 -137 -57q-100 -100 -100 -346q0 -134 35 -254t106.5 -200t162.5 -80q110 0 171.5 111.5
t61.5 298.5q0 97 -20 189.5t-56.5 168.5t-95 122.5t-128.5 46.5zM829 1363q0 -30 -15 -51t-48 -45l-315 -219h-83l301 333q48 55 91 55q27 0 48 -20.5t21 -52.5z" />
    <glyph glyph-name="ocircumflex" unicode="&#xf4;" 
d="M52 513q0 145 57 264t161 188.5t234 69.5q200 0 329 -144.5t129 -379.5q0 -146 -56.5 -269.5t-161 -198t-234.5 -74.5q-193 0 -325.5 155.5t-132.5 388.5zM476 969q-78 0 -137 -57q-100 -100 -100 -346q0 -134 35 -254t106.5 -200t162.5 -80q110 0 171.5 111.5
t61.5 298.5q0 97 -20 189.5t-56.5 168.5t-95 122.5t-128.5 46.5zM193 1048l256 375h128l256 -375h-71l-249 232l-249 -232h-71z" />
    <glyph glyph-name="otilde" unicode="&#xf5;" 
d="M52 513q0 145 57 264t161 188.5t234 69.5q200 0 329 -144.5t129 -379.5q0 -146 -56.5 -269.5t-161 -198t-234.5 -74.5q-193 0 -325.5 155.5t-132.5 388.5zM476 969q-78 0 -137 -57q-100 -100 -100 -346q0 -134 35 -254t106.5 -200t162.5 -80q110 0 171.5 111.5
t61.5 298.5q0 97 -20 189.5t-56.5 168.5t-95 122.5t-128.5 46.5zM577 1264q62 -33 98 -33q51 0 84 41q22 26 34 71h59q-4 -60 -39 -123q-61 -115 -180 -115q-65 0 -160 52l-47 26q-44 23 -78 23q-51 0 -81 -37q-16 -20 -31 -64h-62q25 113 83.5 170t133.5 57q59 0 137 -42z
" />
    <glyph glyph-name="odieresis" unicode="&#xf6;" 
d="M52 513q0 145 57 264t161 188.5t234 69.5q200 0 329 -144.5t129 -379.5q0 -146 -56.5 -269.5t-161 -198t-234.5 -74.5q-193 0 -325.5 155.5t-132.5 388.5zM476 969q-78 0 -137 -57q-100 -100 -100 -346q0 -134 35 -254t106.5 -200t162.5 -80q110 0 171.5 111.5
t61.5 298.5q0 97 -20 189.5t-56.5 168.5t-95 122.5t-128.5 46.5zM819 1196q0 -46 -29.5 -79t-72.5 -33q-42 0 -72 33t-30 79q0 47 30 80t72 33q43 0 72.5 -33t29.5 -80zM208 1196q0 47 29.5 80t71.5 33q43 0 72.5 -33t29.5 -80q0 -46 -29.5 -79t-72.5 -33q-42 0 -71.5 33
t-29.5 79z" />
    <glyph glyph-name="ugrave" unicode="&#xf9;" 
d="M317 1020v-704q0 -75 19 -119q38 -84 136 -84q69 0 133 49q38 29 75 76v603q0 84 -29.5 111t-120.5 32v36h323v-774q0 -77 25.5 -104t102.5 -24v-30q-21 -6 -47.5 -14.5t-33.5 -10.5q-26 -7 -87 -30q-25 -11 -114 -48q-7 0 -7 17v177q-66 -87 -124 -132q-86 -66 -180 -66
q-87 0 -164 68q-78 67 -78 226v571q0 89 -34 117q-23 20 -94 27v30h299zM675 1048h-83l-315 219q-33 24 -47.5 45.5t-14.5 50.5q0 30 20.5 51t48.5 21q40 0 90 -54z" />
    <glyph glyph-name="uacute" unicode="&#xfa;" 
d="M317 1020v-704q0 -75 19 -119q38 -84 136 -84q69 0 133 49q38 29 75 76v603q0 84 -29.5 111t-120.5 32v36h323v-774q0 -77 25.5 -104t102.5 -24v-30q-21 -6 -47.5 -14.5t-33.5 -10.5q-26 -7 -87 -30q-25 -11 -114 -48q-7 0 -7 17v177q-66 -87 -124 -132q-86 -66 -180 -66
q-87 0 -164 68q-78 67 -78 226v571q0 89 -34 117q-23 20 -94 27v30h299zM829 1363q0 -30 -15 -51t-48 -45l-315 -219h-83l301 333q48 55 91 55q27 0 48 -20.5t21 -52.5z" />
    <glyph glyph-name="ucircumflex" unicode="&#xfb;" 
d="M317 1020v-704q0 -75 19 -119q38 -84 136 -84q69 0 133 49q38 29 75 76v603q0 84 -29.5 111t-120.5 32v36h323v-774q0 -77 25.5 -104t102.5 -24v-30q-21 -6 -47.5 -14.5t-33.5 -10.5q-26 -7 -87 -30q-25 -11 -114 -48q-7 0 -7 17v177q-66 -87 -124 -132q-86 -66 -180 -66
q-87 0 -164 68q-78 67 -78 226v571q0 89 -34 117q-23 20 -94 27v30h299zM193 1048l256 375h128l256 -375h-71l-249 232l-249 -232h-71z" />
    <glyph glyph-name="udieresis" unicode="&#xfc;" 
d="M317 1020v-704q0 -75 19 -119q38 -84 136 -84q69 0 133 49q38 29 75 76v603q0 84 -29.5 111t-120.5 32v36h323v-774q0 -77 25.5 -104t102.5 -24v-30q-21 -6 -47.5 -14.5t-33.5 -10.5q-26 -7 -87 -30q-25 -11 -114 -48q-7 0 -7 17v177q-66 -87 -124 -132q-86 -66 -180 -66
q-87 0 -164 68q-78 67 -78 226v571q0 89 -34 117q-23 20 -94 27v30h299zM819 1196q0 -46 -29.5 -79t-72.5 -33q-42 0 -72 33t-30 79q0 47 30 80t72 33q43 0 72.5 -33t29.5 -80zM208 1196q0 47 29.5 80t71.5 33q43 0 72.5 -33t29.5 -80q0 -46 -29.5 -79t-72.5 -33
q-42 0 -71.5 33t-29.5 79z" />
    <glyph glyph-name="oe" unicode="&#x153;" horiz-adv-x="1479" 
d="M1031 979q-82 0 -129 -73t-44 -205h327q3 13 3 33q0 72 -24 137q-40 108 -133 108zM489 43q133 0 183 167q29 99 29 262q0 170 -30 286q-56 221 -207 221q-143 0 -195 -169q-28 -90 -28 -230q0 -102 13 -192.5t40.5 -170.5t77.5 -127t117 -47zM786 872q96 173 269 173
q105 0 189 -66q135 -106 135 -347h-519q7 -188 43 -298q65 -194 218 -194q91 0 168 70q45 42 102 125l24 -15q-78 -161 -134 -224q-98 -113 -232 -113q-115 0 -188 81q-41 46 -77 131q-98 -217 -306 -217q-123 0 -220.5 70t-150 187.5t-52.5 259.5q0 148 56.5 274t158 201.5
t224.5 75.5q190 0 292 -174z" />
    <glyph glyph-name="circumflex" unicode="&#x2c6;" horiz-adv-x="682" 
d="M-34 1048l256 375h128l256 -375h-71l-249 232l-249 -232h-71z" />
    <glyph glyph-name="breve" unicode="&#x2d8;" horiz-adv-x="682" 
d="M575 1402q-14 -144 -58 -221q-75 -133 -247 -133q-79 0 -143 44q-121 85 -130 310h62q13 -105 71.5 -161.5t161.5 -56.5q107 0 164 78q31 43 58 140h61z" />
    <glyph glyph-name="dotaccent" unicode="&#x2d9;" horiz-adv-x="682" 
d="M388 1196q0 -46 -29.5 -79t-72.5 -33q-42 0 -72 33t-30 79q0 47 30 80t72 33q43 0 72.5 -33t29.5 -80z" />
    <glyph glyph-name="ring" unicode="&#x2da;" horiz-adv-x="682" 
d="M215 1288q0 -59 37 -99t89 -40t88.5 41t36.5 98t-36.5 97t-88.5 40t-89 -40t-37 -97zM132 1288q0 94 61.5 161.5t147.5 67.5t147 -67.5t61 -161.5q0 -96 -61 -163t-147 -67q-87 0 -148 67t-61 163z" />
    <glyph glyph-name="tilde" unicode="&#x2dc;" horiz-adv-x="682" 
d="M350 1264q62 -33 98 -33q51 0 84 41q22 26 34 71h59q-5 -60 -39 -123q-61 -115 -180 -115q-65 0 -160 52l-47 26q-44 23 -78 23q-51 0 -81 -37q-16 -20 -31 -64h-62q25 113 83.5 170t133.5 57q59 0 137 -42z" />
    <glyph glyph-name="gravecmb" unicode="&#x300;" horiz-adv-x="0" 
d="M-242 1048h-83l-315 219q-33 24 -47.5 45.5t-14.5 50.5q0 30 20.5 51t48.5 21q40 0 90 -54z" />
    <glyph glyph-name="acutecmb" unicode="&#x301;" horiz-adv-x="0" 
d="M-89 1363q0 -30 -15 -51t-48 -45l-315 -219h-83l301 333q48 55 91 55q27 0 48 -20.5t21 -52.5z" />
    <glyph glyph-name="uni0302" unicode="&#x302;" horiz-adv-x="0" 
d="M-716 1048l256 375h128l256 -375h-71l-249 232l-249 -232h-71z" />
    <glyph glyph-name="tildecmb" unicode="&#x303;" horiz-adv-x="0" 
d="M-332 1264q62 -33 98 -33q51 0 84 41q22 26 34 71h59q-5 -60 -39 -123q-61 -115 -180 -115q-65 0 -160 52l-47 26q-44 23 -78 23q-51 0 -81 -37q-16 -20 -31 -64h-62q25 113 83.5 170t133.5 57q59 0 137 -42z" />
    <glyph glyph-name="uni200B" unicode="&#x200b;" horiz-adv-x="0" 
 />
    <glyph glyph-name="uni200C" unicode="&#x200c;" horiz-adv-x="0" 
 />
    <glyph glyph-name="uni200D" unicode="&#x200d;" horiz-adv-x="0" 
 />
    <glyph glyph-name="endash" unicode="&#x2013;" 
d="M1023 521v-109h-1028v109h1028z" />
    <glyph glyph-name="emdash" unicode="&#x2014;" horiz-adv-x="2048" 
d="M1801 521v-109h-1560v109h1560z" />
    <glyph glyph-name="quotedblleft" unicode="&#x201c;" horiz-adv-x="909" 
d="M55 1089q0 100 69.5 197.5t161.5 144.5l19 -44q-73 -46 -121 -112t-48 -130q0 -26 27 -26q60 7 70 7q40 0 75 -29.5t35 -86.5q0 -56 -33 -92.5t-90 -36.5q-70 0 -117.5 59.5t-47.5 148.5zM525 1080q0 111 69 208t162 143l19 -44q-74 -47 -121.5 -111.5t-47.5 -128.5
q0 -28 27 -28q60 7 70 7q41 0 75.5 -31t34.5 -84q0 -51 -31 -90.5t-93 -39.5q-70 0 -117 59.5t-47 139.5z" />
    <glyph glyph-name="quotedblright" unicode="&#x201d;" horiz-adv-x="909" 
d="M827 1226q0 -101 -69 -199t-161 -143l-19 44q106 67 148 157q21 47 21 85q0 26 -28 26q-55 -7 -68 -7q-43 0 -77 31t-34 85q0 57 32.5 93t90.5 36q69 0 116.5 -59.5t47.5 -148.5zM358 1235q0 -113 -69 -209t-162 -142l-18 44q168 115 168 239q0 29 -26 29q-56 -7 -70 -7
q-34 0 -63 19q-47 32 -47 99q0 52 32 89.5t91 37.5q70 0 117 -59.5t47 -139.5z" />
    <glyph glyph-name="bullet" unicode="&#x2022;" horiz-adv-x="717" 
d="M353 386q-122 0 -207 94.5t-85 228.5q0 133 85.5 226.5t206.5 93.5t205 -93.5t84 -226.5q0 -134 -85 -228.5t-204 -94.5z" />
    <glyph glyph-name="ellipsis" unicode="&#x2026;" horiz-adv-x="2048" 
d="M1820 101q0 -50 -33.5 -87.5t-80.5 -37.5t-80.5 37t-33.5 88q0 53 33.5 90.5t80.5 37.5t80.5 -37.5t33.5 -90.5zM1023 229q46 0 80 -36.5t34 -91.5q0 -51 -33.5 -88t-80.5 -37q-48 0 -82 36.5t-34 88.5t34 90t82 38zM341 229q47 0 80.5 -38t33.5 -90q0 -50 -33.5 -87.5
t-80.5 -37.5t-80.5 37t-33.5 88q0 53 33 90.5t81 37.5z" />
    <glyph glyph-name="perthousand" unicode="&#x2030;" horiz-adv-x="2048" 
d="M1099 748q69 0 119 -44q77 -69 77 -225q0 -125 -45 -245t-122.5 -197.5t-164.5 -77.5q-107 0 -179.5 82t-72.5 231q0 120 56 231t146 178t186 67zM281 798q67 0 129.5 69t99 175.5t36.5 215.5q0 74 -5 92q-5 15 -38 35q-47 27 -98 81q-56 -19 -104 -77t-78 -132
t-46.5 -151t-16.5 -141q0 -82 32 -124.5t89 -42.5zM403 1529q61 0 140 -76q80 -77 199 -77q86 0 141 39q51 36 188 179h90l-882 -1632h-95l792 1462q-92 -107 -255 -107q-18 0 -46 5q-51 8 -88 27q8 -38 8 -74q0 -138 -44 -261t-123 -199t-172 -76q-100 0 -171 85t-71 235
q0 117 55.5 226.5t146.5 176.5t187 67zM1661 19q69 0 132.5 70.5t100.5 177t37 213.5q0 71 -22 122q-35 80 -108 80q-67 0 -129.5 -88t-97 -203t-34.5 -207q0 -68 31 -116.5t90 -48.5zM1774 747q99 0 152 -72t53 -197q0 -119 -40 -236t-119.5 -199t-177.5 -82
q-106 0 -177.5 84.5t-71.5 226.5q0 113 52 223t141 181t188 71zM857 184q0 -69 31 -115.5t83 -46.5q77 0 142.5 75.5t99 178.5t33.5 200q0 123 -52 175q-32 33 -75 33q-66 0 -128.5 -86.5t-98 -202.5t-35.5 -211z" />
    <glyph glyph-name="Euro" unicode="&#x20ac;" horiz-adv-x="1524" 
d="M1292 164q-173 -164 -428 -164q-138 0 -260.5 56t-210 152.5t-138.5 231t-51 286.5t51 286.5t138.5 231t210 152.5t260.5 56q280 0 476 -216l-48 -122q-183 217 -428 217q-151 0 -277.5 -80.5t-199.5 -219.5t-73 -305t73 -305t199.5 -219.5t277.5 -80.5q249 0 428 221
v-178zM1167 786h-1141l48 121h1139zM1073 544h-1047l48 121h1047z" />
    <glyph glyph-name="trademark" unicode="&#x2122;" horiz-adv-x="2007" 
d="M80 1427h569l19 -284h-36q-24 153 -85 205q-37 33 -121 40v-628q0 -48 23 -64t89 -17v-40h-344v40q66 2 88.5 17t22.5 64v628q-94 -10 -133 -52q-54 -49 -73 -193h-36zM756 679q64 12 84 31t20 79v518q0 53 -18.5 66.5t-85.5 14.5v39h239l190 -579l177 579h228v-39
q-65 -3 -80 -16t-15 -65v-547q0 -49 18 -63t77 -18v-40h-313v40q60 3 77.5 19.5t17.5 61.5v547l-209 -668h-33l-232 709v-563q0 -61 23.5 -80.5t90.5 -25.5v-40h-256v40z" />
    <glyph glyph-name="infinity" unicode="&#x221e;" horiz-adv-x="1460" 
d="M1042 423q108 0 189.5 81t81.5 198q0 120 -70.5 209t-164.5 89q-60 0 -106 -33q-28 -20 -55 -56q-41 -52 -94 -156.5t-53 -119.5q0 -14 34.5 -68t69.5 -84q74 -60 168 -60zM687 755q0 19 -22.5 54t-58.5 72t-91.5 64t-111.5 27q-121 0 -190 -79.5t-69 -200.5
q0 -120 67.5 -205.5t157.5 -85.5q77 0 132 42q31 25 66 78q28 40 74 129.5t46 104.5zM1034 1101q100 0 174 -59t109.5 -150.5t35.5 -199.5q0 -98 -39.5 -190t-109.5 -151.5t-150 -59.5q-207 0 -303 300q-54 -124 -104 -183q-97 -117 -228 -117q-93 0 -167.5 60t-112.5 149.5
t-38 185.5q0 185 86.5 300t217.5 115q154 0 263 -205l43 -94q57 125 109 190q91 109 214 109z" />
    <glyph glyph-name="uniF8FF" unicode="&#xf8ff;" horiz-adv-x="1618" 
d="M512 1397q77 0 182 -34t141 -34q45 0 147 39q103 38 177 38q124 0 219 -73q54 -41 107 -113q-80 -76 -117 -133q-67 -106 -67 -233q0 -136 69.5 -249.5t163.5 -144.5q-37 -134 -126 -283q-134 -221 -264 -221q-52 0 -143 36q-90 37 -155 37q-62 0 -146 -38
q-85 -38 -136 -38q-156 0 -308 293q-151 289 -151 567q0 257 115 420.5t292 163.5zM1142 1831q6 -24 6 -48q0 -75 -31.5 -158t-93.5 -151q-55 -60 -111 -81q-32 -11 -106 -19q5 374 336 457z" />
    <glyph glyph-name="fi" unicode="&#xfb01;" horiz-adv-x="1139" 
d="M66 31q43 2 66.5 8t42 24.5t25 53t6.5 93.5v728h-143v67h143q2 246 115 385t333 139q98 0 177 -49t79 -114q0 -34 -21.5 -58.5t-54.5 -24.5q-46 0 -107 94t-133 94q-74 0 -115.5 -27.5t-77.5 -100.5q-20 -58 -26 -115q-6 -60 -6 -223h292q85 0 162 9q17 3 48 10
q37 9 47 9q15 0 15 -21q0 -16 -4 -64l-1 -46q-2 -64 -2 -95v-588q0 -59 6 -93t24.5 -53.5t41.5 -27.5t68 -14v-31h-450v33q35 4 55.5 7.5t38 12t25.5 19.5t14 33t7.5 47t1.5 67v594q0 77 -20 98t-91 24q-13 0 -29 0.5t-26.5 1t-17.5 0.5q-47 1 -205 1v-740q0 -100 43 -136
q26 -23 104 -31v-31h-450v31z" />
    <glyph glyph-name="fl" unicode="&#xfb02;" horiz-adv-x="1139" 
d="M66 31q37 7 55.5 11t37.5 14t26.5 21t14 34.5t7.5 51t1 73.5v702h-142v67h144q4 128 17 196q20 104 71 183q34 52 86 90q80 56 177 56q67 0 133 -28q69 -29 83 -29q13 0 24 4l99 42q10 4 14 6q1 1 5 2t5 1q9 -7 11 -12t1 -20l-3 -99v-1216q0 -85 24.5 -112.5t108.5 -37.5
v-31h-441v31q76 12 100 33q38 33 38 126v748h-387v-761q0 -74 31 -106.5t116 -39.5v-31h-457v31zM763 1321q-13 -13 -37 -13q-60 0 -105 80q-46 79 -101 79q-96 0 -123 -127q-18 -81 -18 -335h384v316z" />
    <glyph glyph-name="CR" horiz-adv-x="512" 
 />
    <glyph glyph-name="notequal_old" horiz-adv-x="1124" 
d="M45 722v154h597l147 291h152l-150 -291h287v-154h-363l-154 -301h517v-154h-595l-149 -291h-152l149 291h-286v154h365l151 301h-516z" />
    <glyph glyph-name="approxequal_old" horiz-adv-x="1124" 
d="M40 815q131 133 271 133q94 0 259 -82q168 -83 237 -83q79 0 150.5 45t125.5 115v-188q-58 -53 -109 -81q-81 -45 -164 -45q-98 0 -262 83q-163 82 -240 82q-87 0 -161 -53q-43 -31 -107 -106v180zM40 351q131 133 271 133q94 0 259 -82q168 -83 237 -83q79 0 150.5 45
t125.5 114v-188q-139 -125 -273 -125q-98 0 -262 83q-163 82 -240 82q-89 0 -159 -52q-46 -33 -109 -108v181z" />
    </font>
</defs>
</svg>
