<?xml version="1.0" encoding="UTF-8"?>
<svg width="236px" height="236px" viewBox="0 0 236 236" version="1.1" xmlns="http://www.w3.org/2000/svg" xmlns:xlink="http://www.w3.org/1999/xlink">
    <!-- Generator: Sketch 56.2 (81672) - https://sketch.com -->
    <title>Group Copy 13</title>
    <desc>Created with Sketch.</desc>
    <defs>
        <polygon id="path-1" points="0.00522242167 0.134171327 138.810922 0.134171327 138.810922 113.41894 0.00522242167 113.41894"></polygon>
    </defs>
    <g id="Page-1" stroke="none" stroke-width="1" fill="none" fill-rule="evenodd">
        <g id="Group-Copy-13">
            <circle id="Oval-Copy-3" fill="#1700FF" cx="118.344383" cy="118.313323" r="117.5"></circle>
            <g id="Group-22-Copy-5" transform="translate(18.512050, 5.341666)">
                <path d="M95.4694499,0 C95.4694499,0 98.030573,3.99754582 96.3027006,10.6746455 C94.4615659,17.7889304 94.3024001,25.0512542 96.7143364,30.699013 C98.6976724,35.3416917 104.270473,39.1664429 105.334738,45.7158033 C106.127574,50.5926706 105.526835,53.3554035 107.633412,53.9846927 C109.710551,54.6050698 110.766335,51.8552098 107.833492,46.3020176 C104.698574,40.3665978 104.698574,36.5779899 105.430537,31.0792601 C105.972399,27.0114082 105.526336,22.9054326 103.801956,20.9096303 C103.801956,20.9096303 106.813633,22.0077919 107.547592,28.118977 C108.279057,34.2098624 107.165395,37.398888 109.547893,42.0742441 C110.883589,44.6953746 113.051038,46.1440764 114.275967,50.7367486 C114.904148,53.0915081 115.730912,54.7065681 117.185857,54.5862555 C118.640803,54.465943 119.579332,51.4452559 116.487823,47.9566867 C113.396313,44.4676224 112.669839,42.7976048 112.518656,39.0070164 C112.417369,36.4710454 111.91193,32.8710756 110.396611,31.7882626 C110.396611,31.7882626 114.199128,31.9293699 114.943066,38.0445159 C115.532828,42.8921714 118.216693,45.4429958 119.307403,46.3455876 C120.399111,47.2476843 124.703075,50.3159022 125.127185,57.2935357 C125.409093,61.9282926 123.301518,62.8932686 121.737302,62.8407866 C118.078483,62.7189887 118.927202,58.3723879 116.700377,58.5466678 C115.033875,58.6768827 115.367675,63.3859065 111.91193,63.3686252 C108.341925,63.3507534 108.20122,58.115424 105.723921,58.372883 C103.092945,58.6461856 102.970701,63.9102316 99.0000376,63.1279524 C94.5628533,62.2540772 97.7272099,57.3836464 95.4235463,56.0300063 C93.4412081,54.8650044 91.7866817,58.2560363 89.7559452,56.7820836 C87.1818494,54.9140206 90.3167678,51.2477057 89.4226449,46.7060302 C88.5365053,42.2104003 85.8092311,38.7579743 84.9365632,35.4575482 C83.7859788,31.105006 85.3606728,26.73563 85.3606728,26.73563 C85.3606728,26.73563 85.2494064,32.1308811 86.8759915,35.0966105 C88.7989543,38.6015185 90.366164,38.5039811 92.2107913,43.3377735 C93.4327259,46.5401672 93.389816,48.8597736 94.9390635,49.3529066 C96.7063531,49.9163457 98.2725649,46.5862127 94.0294731,40.9315223 C89.7858823,35.2773269 88.2705637,26.8559426 89.4226449,20.960627 C90.5737283,15.0658065 96.0607086,5.86758924 95.4694499,0" id="Fill-1" fill="#9BFD8F"></path>
                <path d="M73.7078919,21.6956988 C73.7078919,21.6956988 73.0266633,26.3171355 75.1661853,30.1935297 C77.4351358,34.3046025 80.3369027,37.4117454 80.2642844,41.8790353 C80.2045102,45.6007888 79.5143896,47.0711112 77.6238445,50.01225 C76.0267366,52.4973715 76.7267372,53.8002076 77.5788904,54.2893269 C78.7501688,54.9617425 80.6397258,54.5595777 81.3599805,51.8580579 C82.0802352,49.1570323 80.164002,46.2237984 82.1108633,42.5761539 C83.0751549,40.7683886 84.6534909,40.4235348 84.3798138,38.9378965 C84.3798138,38.9378965 85.3544795,40.6112775 84.0923048,42.7510511 C83.0494668,44.5173154 83.7148873,46.9115299 84.681649,49.0671134 C85.8282273,51.6253557 86.6339443,55.1895041 84.3798138,58.3860719 C82.1251894,61.5821456 78.269999,62.1834166 76.4985083,59.6913782 C74.9014003,57.4443936 73.4302628,57.570873 72.3572908,59.3766621 C71.615794,60.6241634 69.206547,64.3735843 66.4603907,63.1132374 C63.8846651,61.9304579 63.579866,56.0901754 68.4862923,51.1377186 C71.7575726,47.8364101 74.9893327,44.5770967 75.4932146,40.4383566 C76.0637867,35.7561505 73.8427544,32.8150117 73.1224997,30.7444065 C72.142894,27.9272768 72.0722518,23.8117575 73.7078919,21.6956988" id="Fill-3" fill="#9BFD8F"></path>
                <path d="M59.4845841,40.5988819 C59.4845841,40.5988819 57.90351,42.2960864 59.2585744,44.9554385 C60.6702654,47.726842 61.9990034,48.1262428 62.6983915,52.2158682 C63.472785,56.748221 60.2326512,57.7895515 62.0645711,63.1520803 C63.4678178,67.2586379 63.8070806,70.8661934 60.9330327,71.5469677 C58.1836626,72.1978615 56.7376977,69.0519575 55.5773492,67.6894131 C54.3400085,66.2377255 52.393842,66.857743 51.6244158,69.5350234 C50.8549895,72.2123037 52.2577395,75.4040242 50.9751968,79.1251252 C49.9365459,82.1385596 46.6452495,83.5115622 44.0960594,82.2107704 C41.1137255,80.6893621 40.2643267,76.5783224 42.7231129,71.5016491 C45.2574012,66.2676059 47.7618861,64.119706 46.2230337,58.659568 C46.2230337,58.659568 48.6674149,59.8846628 48.5765143,62.6072617 C48.4861104,65.3298606 47.2830437,67.5001708 47.6262803,69.1874152 C47.9431906,70.745178 49.527245,70.5031471 49.527245,68.4155058 C49.527245,66.3283626 49.1651328,62.6072617 50.5226808,60.0211165 C51.8807256,57.4344732 54.4155107,55.3015135 51.5186134,49.7651806 C51.5186134,49.7651806 55.6672564,52.1700517 54.7622244,57.5853691 C54.4636929,59.3742067 53.8591792,60.6202177 53.7364883,61.5485009 C53.5040212,63.3079562 53.9893211,64.0609413 54.9584305,64.1954029 C55.9389647,64.3318565 57.3874133,63.0609452 57.1311034,58.9767979 C56.9006233,55.3040035 58.278537,55.6531057 58.8149995,53.3986325 C59.4647151,50.6710536 58.2447598,48.3722578 57.5836195,46.8613076 C56.6199739,44.6581289 56.6785874,42.1870231 59.4845841,40.5988819" id="Fill-5" fill="#9BFD8F"></path>
                <path d="M34.9018169,56.2799316 C34.9018169,56.2799316 41.5498534,60.8475706 41.0073096,66.9081422 C40.5122697,72.4401323 38.2950907,75.481089 37.9990668,79.2992838 C37.6815412,83.3998851 38.8961392,86.927236 40.8707986,89.8366678 C43.0024706,92.9778812 43.5615158,95.9156032 41.5498534,98.7009548 C39.3821785,101.700717 33.1246734,103.358924 29.6163903,99.2885984 C29.6163903,99.2885984 29.7529013,103.223429 32.5326256,105.846483 C35.3118499,108.469538 38.2500871,111.810272 36.501446,115.948594 C35.4748631,118.379573 33.9472398,118.820305 31.9400778,121.946629 C31.9400778,121.946629 36.9834849,124.090238 36.7699676,128.473742 C36.5874529,132.212526 34.4917838,133.750127 32.2135999,134.790415 C32.2135999,134.790415 34.643296,135.649546 34.7343033,137.53358 C34.8068092,139.027008 33.6717176,141.136868 29.8444087,140.895656 C26.1721123,140.66437 25.4915574,138.960998 23.2833792,139.765037 C19.1820481,141.257474 15.810276,141.031151 13.5775958,139.538715 C13.5775958,139.538715 16.9153652,140.074741 19.3340604,138.362931 C22.7213338,135.965703 24.8040019,135.649546 25.9860973,135.579069 C25.9975982,135.578076 25.9985983,135.560705 25.9865973,135.55872 C25.1735317,135.456478 20.4581511,135.257453 17.5419158,131.48889 C14.2466498,127.229963 15.1642239,124.358748 9.24924649,121.720307 C3.84281015,119.308189 4.45035918,118.07235 0,117.513989 C0,117.513989 7.12307489,115.901444 11.299912,118.599443 C16.2578121,121.803193 17.3894035,125.90975 21.6427467,127.55406 C24.8020017,128.775009 29.1758547,128.021594 29.2063572,125.338485 C29.2348595,122.804271 26.4116316,123.348239 23.7389159,121.132663 C20.3161397,118.294702 21.1262051,116.368481 19.0910408,112.07233 C17.2858951,108.262076 13.0315517,102.137975 5.83197069,103.042272 C5.83197069,103.042272 12.4390039,100.238556 17.9064452,103.947064 C23.3738865,107.655572 23.4198902,111.635071 25.8345851,112.042054 C28.2492799,112.449037 29.2063572,109.388724 26.4726366,105.891649 C23.975435,102.696832 20.8681842,100.645539 20.8681842,93.9069935 C20.8681842,87.1684479 20.1396254,84.2739058 17.086379,81.6513474 C17.086379,81.6513474 21.1262051,82.9541892 22.3263019,85.9023339 C23.9514331,89.8947373 23.0563608,92.1768197 25.0600225,94.3139764 C26.0781047,95.3994297 28.1567725,95.3507903 27.4902187,92.6408795 C26.8676684,90.1081552 25.413051,89.487258 25.424552,86.8969605 C25.4395532,83.3998851 28.8418278,82.8271311 27.9307542,78.3949876 C27.4267136,75.9436598 25.5915654,74.9276914 24.7414968,70.4806583 C24.7414968,70.4806583 27.2316978,72.9379419 28.2492799,74.0983396 C29.0388437,74.9991616 31.2720239,77.5204706 30.9374969,81.786843 C30.6639748,85.2824294 29.9084138,86.9753792 30.9374969,89.7463374 C31.9400778,92.4448328 35.3423524,92.896981 35.585372,90.1533203 C35.8138905,87.569475 33.3681931,86.354482 33.0031636,82.9541892 C32.5526273,78.7493605 34.0057445,76.2846321 36.6334566,71.9279294 C38.78213,68.3653397 40.9158022,63.8776082 34.9018169,56.2799316" id="Fill-7" fill="#9BFD8F"></path>
                <path d="M124.072,41.9751379 C124.072,41.9751379 126.4317,43.8525875 126.068631,47.4279518 C125.60695,51.9736945 125.887345,52.9262677 127.203159,55.2696176 C128.519471,57.6134621 129.638561,59.5062439 129.562859,63.441667 C129.501601,66.6263082 129.865666,71.4035173 132.633756,73.5668377 C135.401846,75.7301582 138.170434,74.5733209 139.712855,73.1761146 C141.256272,71.7794029 142.496385,69.8712889 142.496385,69.8712889 C142.496385,69.8712889 146.004558,70.6695512 146.308361,76.0002023 C146.580787,80.7774114 151.346006,83.2562779 155.203304,79.8762752 C155.203304,79.8762752 153.630502,86.0051886 157.477341,88.1779062 C160.497936,89.8832398 162.827256,88.1235017 162.827256,88.1235017 C162.827256,88.1235017 163.618636,90.6132491 161.919832,93.4561312 C159.711535,97.15168 160.104487,100.60686 162.418865,102.049074 C164.733742,103.491287 165.804023,102.886408 166.503267,103.355771 C167.062563,103.731656 167.456012,105.023516 165.73131,106.014666 C164.007603,107.006312 163.130062,107.45688 162.691291,109.259647 C162.369559,110.580193 162.781934,111.828528 161.46612,112.774672 C161.46612,112.774672 163.644036,112.189082 164.143568,110.476329 C164.642601,108.764072 165.99527,108.428248 166.729874,108.177987 C167.788701,107.817434 171.631057,107.757589 173.023071,104.662962 C174.436002,101.520855 173.345301,98.8486056 173.537045,96.6407724 C173.960875,91.7740432 175.579496,91.0529363 178.801796,89.15966 C182.023598,87.2673728 185.154757,86.365742 186.108,82.5801785 C186.108,82.5801785 184.428619,85.1040523 179.482114,86.4562513 C176.818612,87.1837877 173.900613,88.1235017 172.357196,91.1429511 C170.814775,94.1624004 170.602611,97.4825582 168.591039,99.0746315 C167.003795,100.330881 165.308476,98.4138642 166.064497,95.1990533 C166.683059,92.5713163 168.591039,90.6018736 170.632991,88.0784943 C172.674943,85.5546205 172.995679,83.3937729 172.5843,78.7046002 C172.357196,76.1208814 173.718829,74.8285274 173.718829,74.8285274 C173.718829,74.8285274 170.663371,75.9403574 170.723634,78.1036779 C170.811288,81.2363875 168.856991,85.3711289 167.411189,84.6984916 C166.2159,84.1425766 168.421208,81.9446351 167.36537,79.0196517 C166.427566,76.4210953 164.634134,75.6253059 164.052427,73.476823 C163.296406,70.6824105 165.41406,69.6462522 166.003736,67.1673856 C166.003736,67.1673856 162.963718,67.6179537 162.192258,70.1418276 C161.420301,72.6657015 162.835722,75.7904977 163.41743,78.1635228 C163.977223,80.4470278 162.766495,82.1597801 161.05773,80.9579354 C159.297667,79.7204805 159.650775,75.2790955 159.151742,71.3135026 C158.495827,66.1069926 156.440428,65.3547268 152.208108,61.579055 C148.638178,58.3944139 148.623237,55.1345956 149.667123,53.0617844 C150.710511,50.9884786 151.436649,49.3212282 151.028258,47.8790146 C151.028258,47.8790146 150.633315,49.2925422 149.258235,50.8534566 C146.823331,53.6172048 145.330714,55.7424421 147.397568,59.3257199 C149.488826,62.9510374 152.238489,65.6870888 152.480535,69.3307061 C152.6922,72.5153473 149.604868,72.4891342 147.987742,70.2318423 C146.308361,67.8884924 144.771916,62.3506097 143.010857,59.5062439 C140.01616,54.6691898 135.735033,54.0529353 135.553249,49.1407042 C135.371466,44.2284731 134.236937,41.9751379 133.057087,41.0284997 C133.057087,41.0284997 134.101471,43.3723442 133.511297,46.7973543 C132.921621,50.2223644 133.023719,53.2808861 135.099538,55.630171 C137.807365,58.6951223 139.155054,62.2873026 139.002654,64.6435117 C138.684907,69.5409053 133.329514,68.4290753 133.465478,63.9674123 C133.57156,60.4988786 134.146793,58.7247975 130.470781,53.8729059 C128.958242,51.876261 127.944239,50.042335 127.896427,47.2474278 C127.838157,43.875833 126.491962,42.5008831 124.072,41.9751379" id="Fill-9" fill="#9BFD8F"></path>
                <path d="M23.2430753,141.393774 C23.2430753,141.393774 24.4214864,142.570206 29.4281138,141.995577 C31.7106935,141.733709 35.9898452,140.427331 38.0202997,142.476328 C39.3197906,143.787647 38.1264314,145.265475 38.1264314,145.265475 C38.1264314,145.265475 41.6915608,145.658772 42.1449874,148.744867 C42.5974175,151.831457 40.1075571,152.953539 38.8623778,153.458995 C38.8623778,153.458995 41.4653457,153.62748 41.0692202,156.152782 C41.0692202,156.152782 43.728991,155.423008 45.2003854,156.432931 C46.6722781,157.443349 47.3514215,159.351036 47.2378157,161.427703 C47.1247082,163.503875 48.0300667,163.167399 48.8791206,161.988991 C49.7276761,160.810088 50.5523147,158.602981 53.3979407,158.00266 C56.2430683,157.402339 58.9740919,158.527879 62.6593046,158.062445 C64.6040564,157.816882 66.2309114,156.952222 66.5338602,156.561889 C66.5338602,156.561889 66.1681292,160.014107 61.6717313,160.251765 C57.8788922,160.452366 55.2136403,160.174192 53.8209728,162.930235 C53.8209728,162.930235 56.2874144,161.597176 57.4837632,163.555261 C58.7344235,165.602282 56.9785164,166.731775 56.3741136,167.194245 C55.5459871,167.828658 54.2180948,168.795595 54.8075494,169.942382 C55.6167416,171.517545 57.8654388,169.78279 58.6940636,168.177487 C59.9960458,165.656138 62.0623758,165.632421 63.8098124,165.386364 C67.6390254,164.845828 71.2255803,163.164928 72.1035339,159.232948 C72.1035339,159.232948 73.4957032,164.57556 69.8025182,166.706576 C66.1098315,168.837593 62.9318588,168.97248 62.9019626,171.328803 C62.8700732,173.791355 65.3878368,172.972645 66.3524895,172.799713 C70.1209134,172.12429 70.7412609,174.90059 69.4397769,178.14183 C68.138293,181.384059 68.6440381,181.893961 69.1368281,181.893961 C69.969439,181.893961 71.5813459,180.475919 71.921665,177.466901 C72.1513679,175.436679 73.4045196,173.427703 74.3128677,172.289316 C76.4923053,169.557979 76.5525961,168.177487 75.7658261,165.566213 C74.9785578,162.954939 74.5246329,160.178639 75.7962206,157.34206 C75.7962206,157.34206 75.8261169,161.796295 77.0977046,163.705464 C79.8367005,167.817294 79.7913579,170.878685 78.368794,173.610023 C76.9462302,176.341361 75.4514171,177.791025 75.8261169,181.413705 C76.5525961,188.437215 73.6466793,192.068788 68.8647721,193.809473 C64.0823667,195.550651 61.3887134,193.089087 62.1146943,191.138414 C62.8411735,189.187246 62.2053796,186.456403 59.360252,187.596766 C56.5151243,188.737129 53.1253864,190.418028 49.1601454,189.547439 C45.1949045,188.677344 43.3861806,184.707813 39.2320949,184.775503 C37.0521591,184.811078 34.5099802,187.229162 29.9393399,186.366478 C29.9393399,186.366478 32.5951246,186.031484 33.9653699,184.715224 C36.5987324,182.186958 38.4144321,181.038689 42.5007529,181.384059 C45.6398605,181.648892 49.6743611,182.254154 50.5219202,180.333126 C51.4013686,178.340455 50.2423901,176.581489 46.8292335,177.122026 C43.8316349,177.596353 35.8418587,175.891244 32.3913317,170.78876 C28.9408047,165.686277 26.4893112,164.005378 21.6461167,164.065657 C16.8029221,164.125442 11.657277,163.615046 8.47930431,160.373805 C5.30083332,157.132071 3.6062135,156.53175 1.72922648,156.861803 C1.72922648,156.861803 4.02974389,154.970915 7.45037461,156.832157 C10.8705071,158.692906 11.8695405,160.943987 17.0455801,160.283387 C22.2211214,159.62328 27.0035269,159.173163 30.8775843,162.11449 C34.7521399,165.055817 39.8145737,169.861845 43.0568234,166.494117 C43.6856415,165.840434 43.7778216,164.88832 43.6318282,164.084927 C43.2855298,162.183663 41.0742029,160.278446 37.5369768,159.773484 C33.3430294,159.174645 30.8561586,159.984461 27.1848976,154.940775 C23.6865366,150.133759 18.8577919,148.745361 14.8960388,149.058121 C9.03338172,149.521085 6.11849611,147.527426 4.51406335,145.636538 C4.51406335,145.636538 8.87493152,147.510627 15.2084548,145.983884 C21.3730641,144.497657 23.6621213,145.062403 26.306944,146.537266 C28.0897578,147.529896 30.8501794,148.893095 33.1945446,148.094643 C36.162247,147.083732 34.8657457,142.932375 28.1988792,143.775789 C23.6461766,144.3519 23.2430753,141.393774 23.2430753,141.393774" id="Fill-11" fill="#9BFD8F"></path>
                <g id="Group-15" transform="translate(73.708279, 86.997604)">
                    <mask id="mask-2" fill="white">
                        <use xlink:href="#path-1"></use>
                    </mask>
                    <g id="Clip-14"></g>
                    <path d="M10.9151786,83.4739307 C10.9151786,83.4739307 6.70438758,85.7512277 5.54143095,89.5817225 C4.24726129,93.8475684 5.64171164,95.5988781 4.03572392,99.1188324 C2.42923729,102.639282 0.641147817,104.414365 0.217075259,105.978459 C-0.207496208,107.543048 -0.177062766,109.679686 2.0655327,110.732651 C4.30812817,111.785616 6.74928938,109.659379 7.49066799,109.13785 C8.32434475,108.550943 8.95995468,108.266157 9.39999232,109.168062 C9.86946559,110.130886 10.8273707,110.506308 12.0062924,109.814897 C12.6743314,109.422636 13.0061058,109.077426 13.3393769,109.408768 C13.3393769,109.408768 13.2256257,112.80094 17.0981565,113.34971 C21.1288415,113.921758 22.0892411,110.774254 23.0681003,110.311168 C23.7047081,110.010533 24.9245403,111.060031 26.3110081,110.853004 C29.1298434,110.431521 29.1298434,107.272626 29.1298434,107.272626 C29.1298434,107.272626 30.2813251,110.582086 32.8876251,110.521662 C34.4332449,110.486002 34.2212086,109.197779 35.161153,108.596509 C36.6424135,107.647057 38.0099227,109.077426 38.9189347,110.491945 C39.7840427,111.83762 41.1011622,111.514698 41.7677045,110.431521 C42.3474366,109.489994 42.6772154,108.265166 44.2832031,108.295379 C45.8896898,108.325591 48.484016,108.650494 50.5874159,107.543048 C52.5870427,106.490083 52.1634691,105.557471 54.0119265,105.677824 C55.8608829,105.798177 61.927615,107.290951 66.5589862,104.023094 C70.2264655,101.435752 69.6836526,97.8736987 70.0443638,96.5012781 C70.4080683,95.1174661 71.4652563,94.7856285 73.0448018,94.8465479 C76.1664748,94.966901 76.9542519,94.0342889 77.5604262,92.7708299 C77.5604262,92.7708299 80.5907988,93.6732298 84.4398809,92.2289936 C88.288963,90.7852527 92.198912,87.1444501 95.6538561,85.1885898 C99.1088002,83.2332247 101.473129,82.1322175 107.594742,81.9395536 C114.292593,81.7290596 119.263223,77.7876221 120.838777,74.4177376 C120.838777,74.4177376 114.171359,79.2016462 108.867458,79.2620704 C104.157758,79.3155606 101.685166,78.4493161 96.9265727,79.5627053 C93.9964808,80.2481727 90.9256965,82.1802596 89.5317451,80.5552462 C88.1372947,78.9307281 90.5320574,76.824798 92.9263212,75.6816919 C95.3205849,74.5380906 103.412388,71.9205363 110.231475,66.0539458 C113.471888,63.2660152 113.595618,61.3002493 118.869085,58.8332601 C121.984771,57.375156 128.44614,56.6669058 133.022132,50.4991851 C133.022132,50.4991851 128.115363,53.7878437 121.444951,55.0721045 C114.413828,56.4261997 111.807528,57.5995178 107.685543,60.848554 C104.657166,63.2362984 99.2704466,67.6353746 96.8966381,65.6324626 C94.4719409,63.5869566 99.2968888,60.4345 100.290715,59.5251661 C107.26147,53.1469515 107.723959,50.4362845 108.352584,47.2194415 C109.140361,43.1878631 108.655422,40.7510859 107.74641,38.0131786 C106.497641,34.2535088 105.685417,30.7622808 110.201042,27.5731735 C115.436591,23.8754137 114.747099,23.4811709 116.686857,21.9770058 C116.686857,21.9770058 109.352896,24.6247722 106.867332,27.0615493 C104.659162,29.2269131 103.654858,30.9727747 103.139984,34.1618821 C102.624112,37.3514847 101.108926,40.6307329 98.4422579,39.9987558 C95.528131,39.3083356 96.4720667,34.9142122 98.8054636,32.5071519 C101.139359,30.1000915 103.241761,30.4012217 103.867393,28.3250084 C104.745972,25.4068191 108.049248,24.684701 109.443199,22.6991239 C109.443199,22.6991239 104.685105,23.1201118 102.017938,25.9783722 C100.167984,27.9614729 98.8054636,26.7004903 99.7454079,25.466748 C100.684853,24.233501 107.949466,21.2989676 108.049248,21.2548877 C112.322901,19.3594515 115.188634,16.9102923 117.11093,14.0941308 C119.596494,10.4538235 121.323716,8.85902217 124.687859,7.80605709 C133.629304,5.00723033 137.507822,2.0895364 138.811471,0.134171327 C138.811471,0.134171327 134.447016,3.59419676 126.870087,5.12807863 C125.134881,5.47972736 120.111368,6.57231484 116.353586,10.3636825 C113.300264,13.443333 112.777407,15.4482261 108.837025,17.3134502 C103.781082,19.707138 98.2052762,21.0438984 95.0776163,23.5713118 C91.6531057,26.3394312 90.8653285,29.2878325 91.2899,33.590329 C91.4261021,34.9776081 89.4105102,34.462517 87.7137211,37.8928256 C87.265202,38.7981973 85.9256316,42.7381489 89.3501422,43.6390631 C91.8656409,44.3012523 93.6836649,41.3830631 93.6836649,41.3830631 C93.6836649,41.3830631 94.2783643,43.0675101 93.2291589,46.3170415 C92.4718152,48.6636777 93.9366117,50.3803179 95.6234226,50.6195381 C97.9573184,50.9503851 100.74572,50.0777019 102.684979,45.7454885 C102.684979,45.7454885 102.467954,50.679467 99.1392336,54.3499864 C97.3431616,56.3301154 94.9144731,58.2953861 92.5017497,59.5553782 C87.834457,61.9921553 85.3903024,63.9504921 85.5614281,66.896417 C85.743031,70.0251001 88.5314327,71.1384894 93.0779895,70.5966531 C93.0779895,70.5966531 85.7904273,72.8090685 83.2734319,74.4177376 C80.1672252,76.4038101 79.5610509,79.5022811 80.1971597,81.8192006 C80.9804467,84.670527 80.1512601,86.3074271 78.4694382,86.2717669 C77.0455522,86.2420501 76.1056079,84.8577428 76.9542519,82.0450482 C77.9316144,78.8044318 75.726936,74.1923853 71.3624811,74.6886557 C71.3624811,74.6886557 73.0143684,75.5311269 73.7717121,77.5771282 C74.52257,79.6043088 74.8024579,81.5185657 72.9085997,84.1658368 C71.8549041,85.6378086 71.0441772,87.0993796 71.9082874,88.6788273 C72.7718987,90.2582749 71.8628867,92.7406178 70.0443638,92.7406178 C68.2258409,92.7406178 67.1611693,90.8357713 68.0896387,87.5956501 C69.407756,82.9925187 69.1348529,79.4725644 65.7253095,77.2160691 C63.1354734,75.5019053 62.9069732,74.2825262 62.9069732,74.2825262 C62.9069732,74.2825262 62.9523739,77.1259282 64.8162975,79.3368577 C66.6802211,81.5482824 67.1801278,84.4818253 65.5437066,86.6031092 C63.9072855,88.724393 61.270552,91.6123702 61.2251513,94.636054 C61.1792517,97.6597378 60.3610411,98.9231969 58.9975231,99.1490445 C57.6335062,99.3748921 54.9059713,96.8925492 55.9516843,92.7856883 C56.9968984,88.6788273 59.2744175,86.1826165 60.1794382,83.6244958 C62.0732964,78.2690342 59.1741368,76.7896331 59.2245266,74.3880208 C59.2853935,71.5297605 55.6333804,69.7244652 55.6333804,69.7244652 C55.6333804,69.7244652 58.209247,73.981396 57.2548343,78.9911523 C56.2999227,84.0004133 49.4050018,90.6648997 50.9965212,96.7573378 C51.4111145,98.3457005 51.7084642,100.081657 50.5470043,100.871133 C49.3211851,101.704194 46.8919977,100.52196 46.8595686,96.2605721 C46.8291352,92.2894178 48.4111753,91.0705339 49.0871969,88.8596044 C50.1628444,85.3391549 49.3750673,81.2773643 44.4498387,80.7360234 C44.4498387,80.7360234 48.6326909,83.8954139 46.4953652,87.324732 C44.3590373,90.7550406 40.4490883,92.3651956 41.6310035,97.095614 C42.3584126,100.006374 41.995207,102.488717 40.5553559,102.749234 C38.8435995,103.058784 37.5110138,101.177216 37.8128537,98.2466445 C38.3357102,93.1695302 35.9943308,90.077993 30.2204582,90.6648997 C30.2204582,90.6648997 34.5400114,92.1091359 34.9945174,95.538454 C35.4490234,98.9687626 34.5619634,98.5849207 35.4714743,100.886486 C36.3804863,103.188052 36.3580354,105.602542 35.1761202,105.512401 C33.9942051,105.42226 34.1338995,103.194491 34.1004726,102.067729 C34.0396058,100.036586 33.1121341,100.393683 32.9938927,98.9231969 C32.9335248,98.171362 33.6035594,98.1401593 33.2064279,96.9524781 C33.2064279,96.9524781 31.289121,98.1787912 31.6752765,100.119298 C32.0828851,102.164804 32.7209896,105.01613 31.0391677,105.046342 C29.3593414,105.076059 30.2154691,100.917194 30.145123,100.05194 C29.9480539,97.6146673 28.8225155,97.8028737 28.9252907,96.5765607 C29.0844426,94.6811245 27.4021219,94.9069721 28.7506726,92.8159003 C28.7506726,92.8159003 26.2202067,93.1016768 26.3264743,95.9747956 C26.4327419,98.8484096 28.1145638,99.0589036 28.0990976,100.758704 C28.0841303,102.458505 26.9022152,103.165765 26.3414416,102.323293 C25.780668,101.480822 26.7206123,99.848875 25.659932,98.291715 C24.6451513,96.8024083 23.4667285,96.6775978 22.7348292,95.087254 C21.3333941,92.0412826 23.5380725,92.2215644 22.4923595,88.0171333 C22.4923595,88.0171333 19.5153701,90.5757493 19.6286224,94.3879188 C19.7194238,97.4566731 21.9141241,98.810273 22.1136876,100.563069 C22.3561573,102.691782 20.6967864,103.4139 19.1586502,102.578858 C17.4114713,101.630397 16.1252842,97.8375433 15.9611432,96.0500781 C15.5824713,91.9283587 17.5486713,90.4390521 18.492108,88.5659034 C20.4463341,84.6848901 19.6286224,80.2546113 18.749545,78.5245986 C18.749545,78.5245986 18.2870564,83.6017129 16.1053278,86.2420501 C13.6447092,89.2191776 11.7488554,91.1611702 11.9304582,94.7113365 C12.0387215,96.8217242 13.3024577,99.71614 13.7414975,101.879523 C14.0408428,103.355457 13.6901099,104.465874 13.3703093,104.850707 C12.5820332,105.798177 10.9456121,104.722429 11.1731145,102.240582 C11.3542185,100.262434 11.3547174,98.4719969 9.94579865,96.7573378 C9.18496259,95.8316597 9.73326346,95.087254 9.73326346,95.087254 C9.73326346,95.087254 7.92920891,95.3408373 8.4450807,98.3140026 C8.8995867,100.932052 7.5585196,101.202475 7.08106379,101.089551 C6.62605888,100.982075 5.2859896,100.209934 6.7782261,97.268962 C7.91573837,95.0278204 8.42961453,92.1314235 8.38670836,89.3756861 C8.33132948,85.8582082 10.195752,84.617532 10.9151786,83.4739307" id="Fill-13" fill="#9BFD8F" mask="url(#mask-2)"></path>
                </g>
                <path d="M72.208074,67.2351854 C72.208074,67.2351854 77.4026566,70.1989702 77.004342,73.7501585 C76.6405113,76.9900477 75.347613,78.0776115 75.4440681,80.2567047 C75.5500188,82.6653065 77.6305506,84.8325029 76.5070734,85.525986 C75.8603743,85.9255194 75.0647446,85.4124709 74.6149539,83.573923 C74.0847007,81.402761 73.5009723,78.1941008 69.0800297,77.7311178 C65.5881546,77.3657876 65.0663974,76.3149056 65.0663974,76.3149056 C65.0663974,76.3149056 64.7960233,78.5857031 68.567768,79.9855573 C70.9206731,80.8589791 70.3739275,82.5151097 71.6868166,84.1429855 C73.061177,85.8467033 74.2911046,86.2323572 74.1386756,87.3179382 C73.9862465,88.4040149 72.6968465,88.7182881 71.7392921,87.4522726 C70.9856429,86.4559175 70.0185929,84.2460909 66.0564367,86.2625948 C66.0564367,86.2625948 68.1189769,86.2373142 69.1899785,86.9417026 C70.5408498,87.8299953 70.0855617,88.4922493 71.0446154,89.9976874 C71.6518328,90.9514125 72.8027972,91.3702782 72.9547265,92.2863301 C73.1216488,93.2950777 71.4594224,94.0767952 70.6622933,92.1356376 C69.7971959,90.0279251 67.8690932,88.5224869 65.3952444,90.2842015 C65.3952444,90.2842015 66.7001372,89.5009969 67.7326567,90.7357834 C68.7646764,91.9700741 68.552775,94.2587168 70.4044133,95.5837204 C71.4869096,96.3580024 72.5983923,96.4868841 73.9562604,96.6375767 C76.1272501,96.8784864 76.5760413,98.53313 75.6109904,99.3629302 C74.9278083,99.949838 73.6479039,99.9096863 72.4684528,98.7755268 C71.4674187,97.8118878 69.326415,96.9538327 67.5657343,99.1671291 C67.5657343,99.1671291 68.3553669,98.1732524 69.9186394,99.1671291 C71.4824117,100.16051 70.9216726,101.785907 73.364036,102.630083 C74.7154072,103.096536 75.9143492,102.40801 76.3701371,102.087788 C77.4631285,101.31995 78.9864196,102.63504 77.9638954,103.924849 C77.0683122,105.054051 76.5070734,104.572232 75.5954976,105.264724 C74.6849214,105.957215 74.5484848,107.357565 74.8368506,108.426788 C74.8368506,108.426788 75.1417088,106.965467 76.415616,106.514381 C77.9034236,105.987453 78.8899645,106.574361 79.8765054,105.129398 C80.6521444,103.992264 81.2423698,103.473267 81.6981577,104.165759 C82.1534458,104.85825 82.9425786,105.550742 84.1270274,105.881869 C85.3109764,106.212996 86.4339538,107.312456 85.6902999,108.908112 C85.6902999,108.908112 87.9787349,107.902834 86.5249115,105.249357 C84.718752,101.952462 82.5782481,102.675192 82.2593965,100.958586 C82.043497,99.7951798 83.8081757,99.1368915 84.9006673,100.838131 C85.8067457,102.248395 86.6163689,102.885864 88.9387881,102.780775 C90.9763399,102.68808 92.6725506,103.69881 92.8094869,104.617341 C92.8094869,104.617341 92.8399727,101.410167 90.2896595,100.687438 C87.9737372,100.031628 86.6468547,99.8447498 86.6313619,99.0318033 C86.6043745,97.5684996 88.2710989,98.0979062 89.8188786,96.8185068 C90.6245037,96.152783 91.7619743,95.297702 92.9459234,96.0957776 C92.9459234,96.0957776 92.3851843,94.0267296 89.6369632,94.5144975 C87.1776077,94.9512084 86.6873359,96.8160283 85.3564552,97.3603059 C83.3678806,98.1732524 82.0624881,95.8395011 84.1270274,94.5298642 C85.3464599,93.7555822 87.9822333,93.6262047 88.756373,91.0366727 C89.5305128,88.4471407 89.6369632,86.1887356 92.2482481,86.2041023 C92.2482481,86.2041023 90.1687158,84.9242073 88.22562,86.5198626 C86.2820245,88.1160137 86.7832912,91.3529287 84.9726338,90.7214081 C84.3919041,90.5186672 84.5063508,89.3319635 85.5383706,87.4835017 C86.5553973,85.6618075 85.902701,84.4874964 85.6293282,83.2076013 C85.3564552,81.9277063 85.8267364,79.8953401 86.5703903,79.0823936 C86.5703903,79.0823936 84.3544215,79.9706863 84.1115346,83.3582939 C83.9735988,85.2825977 83.1529806,87.4364102 82.0020163,87.137008 C81.0724488,86.8960982 81.4902544,85.4030526 82.3508539,83.7494004 C83.321902,81.8825977 82.8421253,80.3657585 82.5177762,79.0372849 C81.9105588,76.5528411 83.6867323,76.4626239 83.1704725,72.7736313 C83.1704725,72.7736313 83.1399867,74.3395447 82.107967,75.4236386 C81.0754474,76.5077325 80.5446944,76.8239885 80.9390109,78.7210289 C81.2048872,79.9994369 80.9590016,81.4860384 79.95247,81.7170342 C78.7075494,82.0030526 77.7949741,80.1535993 78.5556201,78.299189 C79.4272145,76.1761098 83.7726923,68.5770428 72.208074,67.2351854" id="Fill-16" fill="#9BFD8F"></path>
                <path d="M120.240263,67.0203765 C120.240263,67.0203765 118.28305,69.2584135 119.427237,71.4362051 C120.571919,73.6139968 121.603074,74.2453274 121.565398,77.061918 C121.54061,78.907116 121.569364,81.8556488 122.688267,81.8989656 C123.220204,81.9193793 123.735287,81.0356161 123.432385,79.9352687 C122.822615,77.7156539 124.245907,77.6668602 125.209145,76.3056159 C125.209145,76.3056159 124.379263,77.9929812 125.058934,79.299955 C125.939878,80.993793 125.721749,81.8710835 125.209145,83.1412131 C124.697533,84.4113426 123.92615,86.0907416 124.908226,86.6498774 C125.811479,87.1637048 126.986898,85.9309174 127.467773,84.2301089 C128.190574,81.6744151 130.479442,80.7518161 132.196218,80.842433 C132.196218,80.842433 130.193396,81.8556488 129.756642,83.8671436 C129.316417,85.8965627 129.666416,86.7255574 128.039866,88.4945775 C126.695894,89.9568944 126.41183,91.0039671 126.985906,91.5496598 C127.543127,92.0789219 128.595104,91.6412724 129.229662,90.4000208 C130.072929,88.7514912 131.052031,88.4492691 132.196218,88.4492691 C133.085094,88.4492691 135.433452,88.7514912 135.960432,88.2526007 C135.960432,88.2526007 134.499959,89.840885 133.024117,90.0674271 C131.548771,90.2944671 131.172498,92.0331156 129.862236,93.0921377 C128.366564,94.3010262 127.434062,94.2840978 126.248233,94.770541 C125.1794,95.2091863 125.48032,96.9333958 127.438028,96.3279558 C129.395737,95.7230137 130.850758,93.687122 132.57249,93.8330052 C134.710651,94.0142388 135.553919,95.6627684 135.553919,95.6627684 C135.553919,95.6627684 133.641323,94.9368378 132.271571,95.9804253 C131.305854,96.7153179 131.51853,97.8858685 128.039866,98.2488338 C126.571957,98.4016875 125.873448,98.2587917 126.022668,99.0653812 C126.173375,99.8819286 127.648721,99.6703233 127.452901,101.954167 C127.340862,103.260145 128.985258,104.056278 128.823148,105.265665 C128.687809,106.27888 127.829669,106.5816 127.829669,106.5816 C127.829669,106.5816 128.251055,105.492705 127.558495,104.872328 C126.865439,104.252449 125.043566,104.026902 125.043566,102.513302 C125.043566,100.244894 124.351006,98.7178506 123.432385,99.2620496 C122.514259,99.8067465 124.782306,102.309166 123.643077,104.343066 C123.101225,105.310973 121.730977,105.810362 121.776586,107.110863 C121.817733,108.304814 123.310926,109.552539 123.310926,109.552539 C123.310926,109.552539 118.18043,108.60156 119.931908,106.501937 C121.429563,104.706031 121.655624,101.998977 120.722626,101.969103 C119.788637,101.938732 119.683538,104.482974 117.755574,104.993814 C115.285758,105.648048 114.409275,102.691051 112.04307,103.694807 C110.024384,104.551684 109.248539,105.538013 106.131275,105.235293 C106.131275,105.235293 107.379569,104.803618 108.86483,103.63257 C110.804692,102.102041 112.365306,101.091813 114.006728,101.591201 C115.519751,102.050758 117.31188,102.316634 117.544881,101.40947 C117.771438,100.530685 116.636175,100.283232 115.015575,100.320574 C113.042498,100.365882 113.901134,98.2563022 111.3867,96.3737621 C110.133945,95.4357284 108.01363,95.4661 108.01363,95.4661 C108.01363,95.4661 109.971339,94.1202904 111.988538,95.5721515 C114.006728,97.0240127 114.536187,97.3730369 115.497442,97.4925316 C116.98419,97.6777485 117.22909,95.8594368 115.24114,95.3152379 C113.253687,94.770541 112.963674,93.923622 112.516014,92.7744809 C111.800649,90.9392408 111.157168,90.7022429 108.604562,90.2944671 C108.604562,90.2944671 111.883935,89.1786849 112.806026,90.5324608 C113.833216,92.040584 114.857927,92.7889198 115.813234,92.2905272 C116.792336,91.7801851 116.310469,90.3243408 115.000703,89.765205 C113.690441,89.2055712 115.132076,88.1843891 113.607651,87.5495733 C112.16899,86.950108 110.671335,86.1201174 110.799238,84.6383826 C110.799238,84.6383826 111.450651,85.4962553 112.651353,85.6212269 C113.757367,85.7362406 114.782574,85.6695227 115.271877,86.8012374 C115.628815,87.6287385 116.656501,87.6969501 116.98419,87.1069448 C117.4378,86.2903974 116.769532,85.1108847 115.918828,84.0483773 C114.921383,82.8026446 115.604028,81.8257751 115.503391,80.8464161 C115.334341,79.2018697 114.438524,78.7721865 113.584846,78.0900707 C112.478337,77.2058096 112.353904,75.7424969 112.651353,74.9752411 C112.651353,74.9752411 113.042498,76.1054622 114.488099,76.8503128 C115.603532,77.4243854 116.792336,77.5911802 117.168609,79.0276066 C117.544881,80.4645308 117.379302,83.3986247 118.48482,83.2303362 C119.11789,83.1342425 119.273059,81.6067014 119.126317,80.6308277 C118.8135,78.5551044 119.510026,78.9598929 119.660734,76.9787696 C119.85705,74.3981811 118.627595,72.5475062 118.28305,71.6632452 C117.522573,69.7119956 118.343036,67.7009986 120.240263,67.0203765" id="Fill-18" fill="#9BFD8F"></path>
                <path d="M58.6707325,96.4454912 C58.9855003,99.0631718 57.8803264,102.140809 57.9854151,103.955801 C58.0905037,105.770792 59.0696709,107.201824 59.9801071,107.026981 C60.8900452,106.852634 61.2745402,105.875599 60.5045542,104.514107 C59.7350663,103.153111 59.3500733,101.582503 60.0498341,100.221508 C60.749595,98.8605127 61.0842849,97.3246742 60.9169399,96.870678 C60.9169399,96.870678 61.4498539,99.4535887 61.2048131,101.163774 C60.9597723,102.873958 61.3094037,103.641878 62.0793897,104.479337 C62.8493757,105.317293 63.0944165,105.980405 62.6048329,107.515747 C62.1147513,109.051585 62.6391984,109.609891 63.1646416,109.854275 C63.6895868,110.098658 64.9113045,109.728606 64.4242112,108.17886 C63.7309249,105.972458 64.1791703,104.444567 64.7394771,103.711418 C64.7394771,103.711418 64.66975,105.770792 65.3341493,107.236594 C65.9990466,108.702396 66.7690326,110.970887 64.2493954,112.681072 C61.7297583,114.391256 60.7804741,114.883996 60.6445064,116.292179 C60.5314489,117.468894 62.0968214,117.876199 63.2542907,115.567971 C63.6049182,114.869095 64.5024051,114.142403 65.4785839,114.187604 C65.4785839,114.187604 64.2528818,115.228716 64.2304695,117.174839 C64.2075592,119.120963 63.4131688,120.365231 62.2332873,120.230125 C60.7466067,120.058759 60.7361476,118.959035 59.624001,118.939663 C58.3076537,118.917311 58.3529763,120.659782 60.0324024,121.338789 C61.4144923,121.897592 62.369255,122.176249 62.596366,123.397667 C62.823477,124.620079 63.2089681,125.796794 64.4117599,126.18125 C65.6140537,126.566203 67.1121894,126.452953 67.5659133,124.506829 C68.0196373,122.560705 68.2920709,119.912725 70.9013571,119.143812 C70.9013571,119.143812 69.2677517,120.795385 69.1995188,123.66937 C69.1317839,126.543354 68.8593503,128.987682 66.9981358,128.987682 C65.1379174,128.987682 65.18324,127.788119 64.0481831,127.991771 C62.8055472,128.215292 62.596366,129.960744 63.6173694,130.526501 C64.6383728,131.092257 65.6817885,130.73512 66.5902325,130.639751 C67.8836695,130.504149 68.4504509,131.160307 69.0406407,131.590461 C69.6303324,132.020118 71.4004037,132.291821 72.1265612,130.798203 C72.8527188,129.304585 72.263027,126.589052 72.48964,125.162987 C72.716751,123.737419 73.7153421,122.922809 74.6457003,122.696308 C74.6457003,122.696308 73.4284651,123.216864 73.8891617,125.36664 C74.3503564,127.516416 75.8709044,131.431513 73.3746756,133.604138 C70.7878016,135.856238 69.6701764,134.885162 68.3827161,135.369458 C66.9981358,135.890014 67.4299456,138.153041 69.0406407,138.311493 C70.8968747,138.493787 72.0807406,137.482975 73.1704749,136.41057 C74.9405462,134.667602 75.57058,135.193125 77.8222661,134.169895 C79.8642729,133.242034 81.1577099,132.201426 81.475466,130.005945 C81.475466,130.005945 82.4511469,134.916952 75.7573489,137.768088 C73.3736795,138.783867 74.62279,140.468223 73.6695215,141.041927 C72.716751,141.615632 72.4443174,140.913775 72.1036509,141.569934 C71.7639805,142.226589 73.0115968,144.240266 74.7134352,143.312902 C76.4157716,142.385041 77.2320763,141.253527 79.9325058,141.751234 C82.6329353,142.248941 86.0590242,141.592783 87.2842283,139.669011 C87.2842283,139.669011 87.6019845,142.859899 85.4917448,144.127512 C83.4447575,145.356382 82.0800993,144.24126 80.8852763,144.942123 C79.7283051,145.62113 79.7512154,147.272703 81.3619105,147.748058 C82.9770881,148.224903 86.9047139,147.955684 88.2374969,145.711532 C89.8691101,142.964209 90.7591263,142.661214 92.9346106,140.642073 C94.4407151,139.244321 93.4112448,137.270381 93.3201016,135.980416 C93.0406953,132.013661 93.9780262,128.738829 98.2891509,127.833816 C98.2891509,127.833816 95.2261407,130.119196 95.9069756,134.260793 C96.5594217,138.229535 97.608814,139.578609 96.6784557,142.022937 C95.7480975,144.466768 94.2409969,145.110508 94.0238469,147.363601 C93.7967359,149.71703 95.9229132,149.878462 96.6555454,147.544405 C97.4728462,144.942123 98.4246206,144.005817 99.5830859,142.475443 C101.330247,140.167215 100.610564,137.47006 100.467623,136.34252 C100.105043,133.468535 100.899433,131.590461 102.850795,130.028794 C102.850795,130.028794 101.443304,131.228357 102.237695,134.735652 C103.032085,138.243443 104.854452,139.490691 103.342371,142.656247 C100.899433,147.770906 102.706858,150.305139 104.369351,149.786073 C105.556703,149.415028 106.047283,147.569737 105.066621,145.37178 C103.841417,142.625947 105.301203,140.416068 106.685285,139.261706 C106.685285,139.261706 106.254472,142.16748 107.274977,143.565729 C108.296478,144.964475 108.788054,144.693269 109.45345,147.091899 C109.952994,148.892982 111.04223,150.033934 112.176291,149.71703 C113.311348,149.400127 113.447316,148.01976 112.176291,146.661745 C110.905765,145.304227 109.725883,144.964475 109.45345,143.176802 C109.45345,143.176802 110.746887,144.421567 111.7908,144.308316 C112.834714,144.195562 113.12956,143.153954 112.086144,142.316991 C111.04223,141.479532 108.439917,138.9905 108.614235,134.102342 C108.796521,128.972781 110.674171,125.827093 111.223521,123.873519 C111.758925,121.970609 112.388461,117.838449 110.293163,113.847852 C110.293163,113.847852 112.880037,115.296269 113.266026,120.908635 C113.651517,126.521002 112.085646,128.394606 111.666288,131.375384 C111.314664,133.87584 111.495954,135.833389 113.92395,137.632485 C115.621306,138.890164 117.066649,139.533408 118.189752,141.547582 C118.963225,142.934903 120.152569,142.531571 120.731304,142.203741 C121.573507,141.725902 122.341999,139.759413 120.231759,138.492297 C118.122017,137.22518 117.39586,136.27447 117.463595,134.758501 C117.531828,133.242034 116.669702,130.571702 115.444,130.390898 C115.444,130.390898 118.42782,130.764427 118.847677,132.744327 C119.333774,135.038647 119.959326,136.444346 122.092476,136.840227 C123.582144,137.116897 125.189851,137.055304 126.267632,138.560346 C126.918086,139.467842 128.35546,139.974987 129.433241,138.616972 C130.081205,137.800375 129.671309,135.856238 128.264815,135.324257 C126.04351,134.484811 124.554837,135.289984 124.577249,132.552099 C124.60016,129.813717 124.270948,128.535176 124.270948,128.535176 C124.270948,128.535176 124.88355,132.291821 126.676532,132.902779 C128.469015,133.513736 129.433241,132.337022 131.963337,132.789528 C133.242829,133.018513 134.365435,134.311955 135.412835,134.351195 C137.522576,134.430173 138.339877,131.782689 135.412835,130.820555 C132.709417,129.932431 131.914528,130.404806 130.091166,128.648427 C128.412238,127.030134 128.843051,125.910045 126.381188,124.808831 C124.264972,123.862094 124.020927,122.756907 123.885457,122.032698 C123.885457,122.032698 125.110661,123.635593 127.197991,123.91872 C130.157406,124.319568 131.335794,126.07694 132.492765,126.905459 C134.720544,128.500903 136.475674,128.428879 137.681454,127.599368 C139.496848,126.351126 139.098906,123.98677 137.878184,124.416427 C136.592218,124.868933 134.448111,125.287662 133.37033,123.601817 C132.719378,122.583554 133.386267,120.961287 133.386267,120.961287 C132.146122,121.20269 131.343264,119.317165 129.164792,119.422965 C129.164792,119.422965 131.312883,117.385943 133.264245,118.894462 C135.415823,120.558452 136.515518,122.106709 138.619283,121.640295 C140.661788,121.187789 140.525322,118.87956 138.846394,118.381357 C137.157007,117.880669 135.502982,117.868748 135.019375,116.22413 C134.53527,114.580008 134.731502,113.584097 134.232455,113.433096 C134.232455,113.433096 136.380547,113.946201 136.864652,115.319117 C137.348757,116.692034 140.450117,116.480931 140.147302,114.60981 C139.844487,112.739187 136.864652,113.463395 135.579183,112.316484 C134.367427,111.236628 136.032907,109.600951 134.232455,110.55166 C133.431092,110.974364 133.294626,110.189556 131.736724,110.913765 C130.174838,111.639463 127.546128,109.072944 130.495583,106.915717 C131.1809,106.414533 132.26914,106.381253 132.810521,104.75849 C133.202985,103.580285 133.037134,101.574556 131.872692,101.695754 C131.872692,101.695754 133.339451,100.759945 134.14181,102.85707 C134.943173,104.954195 134.050667,105.678403 134.050667,106.689216 C134.050667,107.47452 134.776824,107.956829 135.276369,107.519224 C135.775415,107.081619 135.820738,105.844306 136.47169,106.010705 C137.121646,106.176607 137.259108,107.7949 138.17303,108.582191 C139.451028,109.683405 141.728114,108.447085 140.290741,105.882056 C138.853865,103.317524 136.881087,103.717875 136.788948,102.103059 C136.682863,100.247337 140.096501,100.518543 140.248406,98.6176197 C140.399316,96.7166968 138.929569,96.3550893 138.544078,94.1372631 C138.117248,91.6859816 139.882339,91.7609853 139.661703,87.4832879 C139.572552,85.7686326 139.004276,83.8523115 137.242672,82.7014261 C137.242672,82.7014261 140.802736,83.2155247 141.515945,87.9591395 C142.060812,91.5796848 140.290741,91.6253825 141.675321,94.3483664 C142.752106,96.4668499 144.398163,97.4861061 143.641624,99.4779276 C143.064384,100.998368 141.210142,101.588464 141.357565,102.804419 C141.515945,104.117233 143.157519,104.290586 143.415011,104.305487 C143.415011,104.305487 142.037902,106.221808 143.520598,107.353322 C145.002796,108.484835 147.642961,106.983767 146.553725,104.479337 C145.464489,101.974907 144.216374,100.903496 144.7463,98.9797239 C145.485905,96.2910132 148.155953,96.7976611 147.552316,93.8203599 C147.166327,91.9194369 145.12432,92.1906426 144.292576,88.6604991 C144.292576,88.6604991 146.234475,90.2037882 147.574728,91.1952285 C149.594323,92.6888463 149.594323,93.9336106 149.413032,94.8838236 C149.104739,96.4971494 147.166327,97.8333089 148.043892,99.8400318 C148.921457,101.846258 150.327951,102.932571 150.69103,105.180696 C151.054109,107.428822 150.29757,109.118145 148.755108,110.355459 C147.674836,111.22123 146.531313,111.758674 146.772867,112.754088 C147.01492,113.749999 148.588759,114.53431 149.874227,112.180881 C151.160193,109.827452 151.772795,107.26292 154.624134,105.693305 C156.519714,104.650206 159.268455,103.898182 159.601152,102.525266 C159.601152,102.525266 160.221225,104.335787 158.814731,105.693305 C157.407738,107.05132 154.836304,107.625024 154.064824,111.109966 C153.541373,113.472336 153.451724,114.911812 151.083992,116.164027 C149.068382,117.230471 147.102078,116.925489 146.145324,117.830998 C145.260288,118.668457 145.986445,120.116874 147.106063,119.829774 C148.225182,119.54317 148.414441,118.419604 149.571413,117.85335 C152.375437,116.482917 152.498953,119.415018 155.72881,116.510733 C155.72881,116.510733 155.508672,119.942528 153.39893,120.46358 C151.137283,121.021886 150.388713,119.550621 149.049456,120.410928 C147.484083,121.416773 147.620051,123.858121 145.956064,123.390217 C145.956064,123.390217 146.682222,126.151447 143.853793,126.121148 C143.853793,126.121148 145.426637,129.983593 141.44821,130.134097 C141.44821,130.134097 143.495197,134.058134 141.5528,137.21922 C140.631407,138.718798 137.620692,140.634622 133.037134,138.8092 C131.19634,138.076051 132.209872,139.172794 132.765198,140.649524 C133.445535,142.460045 131.705845,144.949573 126.714384,141.962338 C126.714384,141.962338 125.594766,141.162629 125.745676,143.04865 C125.897083,144.934672 125.503623,147.665106 122.932189,148.012309 C121.471407,148.209505 120.708393,147.363601 120.474808,146.457596 C120.45389,146.376631 120.254669,144.828872 119.362163,145.37178 C118.28488,146.027442 119.437369,147.891608 117.985552,148.90242 C116.533237,149.913232 115.686053,147.967108 115.277651,148.133011 C114.869748,148.298913 115.429059,150.818244 114.763663,152.508064 C114.09777,154.197884 112.371527,151.768457 111.163257,152.417662 C110.179607,152.945669 111.208579,153.729979 111.011351,155.284196 C110.815119,156.837916 109.278634,156.638237 108.772615,157.96943 C108.310424,159.187372 107.391521,159.816211 107.630087,161.04508 C107.733681,161.576067 106.089119,158.552075 107.804903,156.657113 C109.128721,155.194788 108.742732,153.051469 107.653993,153.03607 C106.745549,153.023653 106.412852,156.732613 104.688601,157.380824 C102.971323,158.027049 101.814352,156.808113 102.101727,153.88098 C102.177431,153.111571 101.95032,152.508064 100.150365,154.635488 C98.3504111,156.762416 95.8691238,157.622724 95.1882888,156.913417 C94.5079519,156.20411 96.1564989,155.073093 96.1564989,153.760279 C96.1564989,152.691848 94.8705326,152.206559 92.9953727,154.333486 C91.645656,155.863861 88.9681369,157.65203 87.3977838,155.193794 C85.7791199,152.659065 85.9001462,154.741288 83.7216735,155.374598 C81.5083374,156.018339 81.080014,154.202851 81.0038123,152.799635 C80.9286067,151.396916 80.151648,152.025258 78.6993329,152.236858 C77.2470178,152.447465 76.7932938,151.316448 75.2199525,151.904557 C73.497196,152.548794 73.4957019,153.639577 72.0737679,154.197884 C70.6518339,154.75619 69.3509261,154.303684 68.0196373,153.489073 C68.0196373,153.489073 70.2025924,153.632623 70.9237694,152.462863 C71.8919795,150.893745 72.845248,150.547039 74.4335309,150.290238 C76.0218137,150.033934 77.1588629,149.659908 77.1867537,148.812018 C77.2171348,147.891608 76.4436624,147.056136 75.2199525,148.027211 C73.8891617,149.083224 72.5274918,149.430427 72.0583283,148.97792 C71.5896628,148.524918 72.4806751,147.780841 72.8601895,146.382592 C73.2536494,144.934672 72.1644131,144.180164 70.8181827,145.356878 C69.4719524,146.533593 67.3995645,149.430427 64.5402569,148.178212 C61.6814474,146.925997 60.3954811,146.062212 57.0824496,147.408802 C54.1310027,148.608366 53.4516619,151.131174 46.7653347,148.72112 C46.7653347,148.72112 49.6395838,149.566029 51.863379,148.193113 C54.0871743,146.820197 57.3698247,143.803158 59.8660535,143.591558 C62.3617843,143.380455 63.7687768,144.648068 65.7051969,144.557169 C67.6411189,144.466768 68.6999742,143.301478 68.4275406,141.826735 C68.2781255,141.013615 67.2023365,139.680435 65.2664144,140.725024 C63.959032,141.430854 62.467869,142.233543 61.7262719,141.041927 C60.9851729,139.850312 60.5767715,139.367506 58.5800873,139.834913 C56.582905,140.302818 55.2556006,141.943463 50.5320902,140.001312 C50.5320902,140.001312 53.1124895,140.131948 54.3745494,139.533408 C56.4016147,138.571771 56.0046685,137.847562 58.9884886,137.934487 C61.5385069,138.008498 62.398142,137.248526 62.4524295,136.742375 C62.5286312,136.037041 62.1197318,135.037654 59.6085614,135.821964 C57.0973911,136.606772 57.026668,135.500094 55.8567475,135.158355 C54.9154321,134.883176 54.1210417,134.92788 52.5551711,135.561686 C51.3020762,136.069328 50.638175,135.520459 50.184451,135.38436 C50.184451,135.38436 52.3738807,134.7133 53.3764563,133.996542 C54.923899,132.889864 56.1590641,132.666343 57.3394436,133.030931 C58.6821876,133.445686 60.0473439,133.121333 60.2440738,132.005217 C60.4403057,130.888605 59.7903499,129.71189 57.6268187,130.149495 C55.4637857,130.5871 54.7485852,131.460322 53.2360061,130.866253 C51.6815906,130.254798 52.3400133,128.885856 50.2118438,128.161647 C48.9433093,127.7305 46.837552,128.467126 44.8742372,127.674868 C44.8742372,127.674868 46.5880288,127.641091 48.1648565,126.736079 C49.5867905,125.919979 50.7592012,125.955246 52.060109,126.800155 C53.3610167,127.645065 53.9332767,128.261487 55.4030235,128.323576 C56.9121164,128.388149 59.0801299,127.756329 58.5497062,125.231037 C58.1144101,123.160238 56.3562921,124.235623 54.6166019,123.81292 C52.6094586,123.325147 52.2035475,121.055663 50.0181022,120.49388 C48.6589225,120.14469 47.350544,121.119739 45.8957387,121.315941 C43.9667893,121.576219 42.3102735,121.067087 41.2439475,119.995676 C41.2439475,119.995676 43.4562876,120.297678 45.3130196,119.603769 C47.3684738,118.835353 48.2440465,117.729172 50.2601547,118.411656 C53.3291415,119.451278 54.143952,118.939663 54.9951202,118.079852 C56.0519832,117.011421 55.111166,115.128876 53.1040227,115.862025 C51.4644406,116.461559 50.6371789,117.404321 48.9891299,116.40543 C46.60048,114.957013 47.814727,110.526328 45.4958042,108.553382 C42.8735686,106.322641 41.3326005,106.647492 39.9883624,102.96287 C39.9883624,102.96287 42.2216206,105.43551 44.6929468,106.28191 C47.1294096,107.116389 47.9302747,107.881328 48.5657871,109.55575 C49.2008014,111.230171 49.5942612,112.919991 50.4265035,113.101291 C51.2582478,113.282095 52.2603252,112.338339 51.1402098,110.784619 C50.0210905,109.230899 49.1858599,107.760627 49.95734,105.678403 C50.5535064,104.070541 51.6666491,102.465163 51.5152418,100.759945 C51.3643325,99.0552244 49.3900606,97.2601015 49.9419004,93.1716519 C49.9419004,93.1716519 50.0026626,94.6801711 51.379274,96.2338912 C52.109914,97.0584357 53.6115361,98.9295558 53.3913978,101.574556 C53.1114934,104.931843 51.9311139,105.542801 52.2035475,107.420875 C52.4396234,109.047612 53.2932819,110.204458 54.223142,110.355459 C55.3885801,110.544706 56.0081548,108.620438 55.0553843,106.28191 C54.1026138,103.943383 55.6903986,101.001845 56.2048847,99.1759258 C56.7193708,97.3505033 57.7194561,94.1536547 55.5703685,91.0074708 C55.5703685,91.0074708 58.3559646,93.8278106 58.6707325,96.4454912 Z" id="Fill-20" fill="#9BFD8F"></path>
            </g>
        </g>
    </g>
</svg>